#usda 1.0
(
    defaultPrim = "root"
    doc = "Blender v4.5.0"
    metersPerUnit = 1
    upAxis = "Z"
)

def Xform "root" (
    customData = {
        dictionary Blender = {
            bool generated = 1
        }
    }
)
{
    def Xform "A360"
    {
        custom string userProperties:assetId = "A360"
        custom bool userProperties:authoritativeSource = 0
        custom string userProperties:blender:object_name = "A360"
        custom string userProperties:coordinateSystem = "RIGHT_HANDED_Y_UP"
        custom string userProperties:dimensionalAccuracy = "CONCEPTUAL"
        custom string userProperties:forwardDirection = "+Z"
        custom string userProperties:generatedFrom = "Catalog identity and individually authored assembly recipe"
        custom bool userProperties:motionCandidate = 0
        custom string userProperties:originPolicy = "floor centre; instance XZ unchanged"
        custom bool userProperties:physicalPortVerified = 0
        custom string userProperties:representationClass = "CUSTOM_GENERATED_CONCEPTUAL"
        custom string userProperties:unit = "m"

        def Xform "fin_2"
        {
            custom string userProperties:blender:object_name = "fin_2"
            float3 xformOp:rotateXYZ = (0, -0, 0)
            float3 xformOp:scale = (1, 1, 1)
            double3 xformOp:translate = (0, 0, 1.1200000047683716)
            uniform token[] xformOpOrder = ["xformOp:translate", "xformOp:rotateXYZ", "xformOp:scale"]

            def Mesh "Mesh_3_011" (
                active = true
                prepend apiSchemas = ["MaterialBindingAPI"]
            )
            {
                uniform bool doubleSided = 0
                float3[] extent = [(-0.08, -0.4, -0.9), (0.08, 0.4, 0.9)]
                int[] faceVertexCounts = [3, 3, 3, 3, 3, 3, 3, 3, 3, 3, 3, 3]
                int[] faceVertexIndices = [0, 2, 1, 2, 3, 1, 4, 6, 5, 6, 7, 5, 8, 10, 9, 10, 11, 9, 12, 14, 13, 14, 15, 13, 16, 18, 17, 18, 19, 17, 20, 22, 21, 22, 23, 21]
                rel material:binding = </root/_materials/Material_3_011>
                normal3f[] normals = [(1, 0, 0), (1, 0, 0), (1, 0, 0), (1, 0, 0), (1, 0, 0), (1, 0, 0), (-1, 0, 0), (-1, 0, 0), (-1, 0, 0), (-1, 0, 0), (-1, 0, 0), (-1, 0, 0), (0, 0, 1), (0, 0, 1), (0, 0, 1), (0, 0, 1), (0, 0, 1), (0, 0, 1), (0, 0, -1), (0, 0, -1), (0, 0, -1), (0, 0, -1), (0, 0, -1), (0, 0, -1), (0, -1, 0), (0, -1, 0), (0, -1, 0), (0, -1, 0), (0, -1, 0), (0, -1, 0), (0, 1, 0), (0, 1, 0), (0, 1, 0), (0, 1, 0), (0, 1, 0), (0, 1, 0)] (
                    interpolation = "faceVarying"
                )
                point3f[] points = [(0.08, -0.4, 0.9), (0.08, 0.4, 0.9), (0.08, -0.4, -0.9), (0.08, 0.4, -0.9), (-0.08, 0.4, 0.9), (-0.08, -0.4, 0.9), (-0.08, 0.4, -0.9), (-0.08, -0.4, -0.9), (-0.08, 0.4, 0.9), (0.08, 0.4, 0.9), (-0.08, -0.4, 0.9), (0.08, -0.4, 0.9), (-0.08, -0.4, -0.9), (0.08, -0.4, -0.9), (-0.08, 0.4, -0.9), (0.08, 0.4, -0.9), (-0.08, -0.4, 0.9), (0.08, -0.4, 0.9), (-0.08, -0.4, -0.9), (0.08, -0.4, -0.9), (0.08, 0.4, 0.9), (-0.08, 0.4, 0.9), (0.08, 0.4, -0.9), (-0.08, 0.4, -0.9)]
                texCoord2f[] primvars:st = [(0, 0), (0, 1), (1, 0), (0, 1), (1, 1), (1, 0), (0, 0), (0, 1), (1, 0), (0, 1), (1, 1), (1, 0), (0, 0), (0, 1), (1, 0), (0, 1), (1, 1), (1, 0), (0, 0), (0, 1), (1, 0), (0, 1), (1, 1), (1, 0), (0, 0), (0, 1), (1, 0), (0, 1), (1, 1), (1, 0), (0, 0), (0, 1), (1, 0), (0, 1), (1, 1), (1, 0)] (
                    interpolation = "faceVarying"
                )
                uniform token subdivisionScheme = "none"
                custom string userProperties:blender:data_name = "Mesh_3.011"
            }
        }

        def Xform "fin_0"
        {
            custom string userProperties:blender:object_name = "fin_0"
            float3 xformOp:rotateXYZ = (0, -0, 0)
            float3 xformOp:scale = (1, 1, 1)
            double3 xformOp:translate = (-1.440000057220459, 0, 1.1200000047683716)
            uniform token[] xformOpOrder = ["xformOp:translate", "xformOp:rotateXYZ", "xformOp:scale"]

            def Mesh "Mesh_1_011" (
                active = true
                prepend apiSchemas = ["MaterialBindingAPI"]
            )
            {
                uniform bool doubleSided = 0
                float3[] extent = [(-0.08, -0.4, -0.9), (0.08, 0.4, 0.9)]
                int[] faceVertexCounts = [3, 3, 3, 3, 3, 3, 3, 3, 3, 3, 3, 3]
                int[] faceVertexIndices = [0, 2, 1, 2, 3, 1, 4, 6, 5, 6, 7, 5, 8, 10, 9, 10, 11, 9, 12, 14, 13, 14, 15, 13, 16, 18, 17, 18, 19, 17, 20, 22, 21, 22, 23, 21]
                rel material:binding = </root/_materials/Material_1_011>
                normal3f[] normals = [(1, 0, 0), (1, 0, 0), (1, 0, 0), (1, 0, 0), (1, 0, 0), (1, 0, 0), (-1, 0, 0), (-1, 0, 0), (-1, 0, 0), (-1, 0, 0), (-1, 0, 0), (-1, 0, 0), (0, 0, 1), (0, 0, 1), (0, 0, 1), (0, 0, 1), (0, 0, 1), (0, 0, 1), (0, 0, -1), (0, 0, -1), (0, 0, -1), (0, 0, -1), (0, 0, -1), (0, 0, -1), (0, -1, 0), (0, -1, 0), (0, -1, 0), (0, -1, 0), (0, -1, 0), (0, -1, 0), (0, 1, 0), (0, 1, 0), (0, 1, 0), (0, 1, 0), (0, 1, 0), (0, 1, 0)] (
                    interpolation = "faceVarying"
                )
                point3f[] points = [(0.08, -0.4, 0.9), (0.08, 0.4, 0.9), (0.08, -0.4, -0.9), (0.08, 0.4, -0.9), (-0.08, 0.4, 0.9), (-0.08, -0.4, 0.9), (-0.08, 0.4, -0.9), (-0.08, -0.4, -0.9), (-0.08, 0.4, 0.9), (0.08, 0.4, 0.9), (-0.08, -0.4, 0.9), (0.08, -0.4, 0.9), (-0.08, -0.4, -0.9), (0.08, -0.4, -0.9), (-0.08, 0.4, -0.9), (0.08, 0.4, -0.9), (-0.08, -0.4, 0.9), (0.08, -0.4, 0.9), (-0.08, -0.4, -0.9), (0.08, -0.4, -0.9), (0.08, 0.4, 0.9), (-0.08, 0.4, 0.9), (0.08, 0.4, -0.9), (-0.08, 0.4, -0.9)]
                texCoord2f[] primvars:st = [(0, 0), (0, 1), (1, 0), (0, 1), (1, 1), (1, 0), (0, 0), (0, 1), (1, 0), (0, 1), (1, 1), (1, 0), (0, 0), (0, 1), (1, 0), (0, 1), (1, 1), (1, 0), (0, 0), (0, 1), (1, 0), (0, 1), (1, 1), (1, 0), (0, 0), (0, 1), (1, 0), (0, 1), (1, 1), (1, 0), (0, 0), (0, 1), (1, 0), (0, 1), (1, 1), (1, 0)] (
                    interpolation = "faceVarying"
                )
                uniform token subdivisionScheme = "none"
                custom string userProperties:blender:data_name = "Mesh_1.011"
            }
        }

        def Xform "display"
        {
            custom string userProperties:blender:object_name = "display"
            float3 xformOp:rotateXYZ = (0, -0, 0)
            float3 xformOp:scale = (1, 1, 1)
            double3 xformOp:translate = (1.600000023841858, -0.9549999833106995, 1)
            uniform token[] xformOpOrder = ["xformOp:translate", "xformOp:rotateXYZ", "xformOp:scale"]

            def Mesh "Mesh_7_010" (
                active = true
                prepend apiSchemas = ["MaterialBindingAPI"]
            )
            {
                uniform bool doubleSided = 0
                float3[] extent = [(-0.13, -0.01, -0.1), (0.13, 0.01, 0.1)]
                int[] faceVertexCounts = [3, 3, 3, 3, 3, 3, 3, 3, 3, 3, 3, 3]
                int[] faceVertexIndices = [0, 2, 1, 2, 3, 1, 4, 6, 5, 6, 7, 5, 8, 10, 9, 10, 11, 9, 12, 14, 13, 14, 15, 13, 16, 18, 17, 18, 19, 17, 20, 22, 21, 22, 23, 21]
                rel material:binding = </root/_materials/Material_7_010>
                normal3f[] normals = [(1, 0, 0), (1, 0, 0), (1, 0, 0), (1, 0, 0), (1, 0, 0), (1, 0, 0), (-1, 0, 0), (-1, 0, 0), (-1, 0, 0), (-1, 0, 0), (-1, 0, 0), (-1, 0, 0), (0, 0, 1), (0, 0, 1), (0, 0, 1), (0, 0, 1), (0, 0, 1), (0, 0, 1), (0, 0, -1), (0, 0, -1), (0, 0, -1), (0, 0, -1), (0, 0, -1), (0, 0, -1), (0, -1, 0), (0, -1, 0), (0, -1, 0), (0, -1, 0), (0, -1, 0), (0, -1, 0), (0, 1, 0), (0, 1, 0), (0, 1, 0), (0, 1, 0), (0, 1, 0), (0, 1, 0)] (
                    interpolation = "faceVarying"
                )
                point3f[] points = [(0.13, -0.01, 0.1), (0.13, 0.01, 0.1), (0.13, -0.01, -0.1), (0.13, 0.01, -0.1), (-0.13, 0.01, 0.1), (-0.13, -0.01, 0.1), (-0.13, 0.01, -0.1), (-0.13, -0.01, -0.1), (-0.13, 0.01, 0.1), (0.13, 0.01, 0.1), (-0.13, -0.01, 0.1), (0.13, -0.01, 0.1), (-0.13, -0.01, -0.1), (0.13, -0.01, -0.1), (-0.13, 0.01, -0.1), (0.13, 0.01, -0.1), (-0.13, -0.01, 0.1), (0.13, -0.01, 0.1), (-0.13, -0.01, -0.1), (0.13, -0.01, -0.1), (0.13, 0.01, 0.1), (-0.13, 0.01, 0.1), (0.13, 0.01, -0.1), (-0.13, 0.01, -0.1)]
                texCoord2f[] primvars:st = [(0, 0), (0, 1), (1, 0), (0, 1), (1, 1), (1, 0), (0, 0), (0, 1), (1, 0), (0, 1), (1, 1), (1, 0), (0, 0), (0, 1), (1, 0), (0, 1), (1, 1), (1, 0), (0, 0), (0, 1), (1, 0), (0, 1), (1, 1), (1, 0), (0, 0), (0, 1), (1, 0), (0, 1), (1, 1), (1, 0), (0, 0), (0, 1), (1, 0), (0, 1), (1, 1), (1, 0)] (
                    interpolation = "faceVarying"
                )
                uniform token subdivisionScheme = "none"
                custom string userProperties:blender:data_name = "Mesh_7.010"
            }
        }

        def Xform "operator_console"
        {
            custom string userProperties:blender:object_name = "operator_console"
            float3 xformOp:rotateXYZ = (0, -0, 0)
            float3 xformOp:scale = (1, 1, 1)
            double3 xformOp:translate = (1.600000023841858, -0.8199999928474426, 0.8999999761581421)
            uniform token[] xformOpOrder = ["xformOp:translate", "xformOp:rotateXYZ", "xformOp:scale"]

            def Mesh "Mesh_6_011" (
                active = true
                prepend apiSchemas = ["MaterialBindingAPI"]
            )
            {
                uniform bool doubleSided = 0
                float3[] extent = [(-0.175, -0.125, -0.3), (0.175, 0.125, 0.3)]
                int[] faceVertexCounts = [3, 3, 3, 3, 3, 3, 3, 3, 3, 3, 3, 3]
                int[] faceVertexIndices = [0, 2, 1, 2, 3, 1, 4, 6, 5, 6, 7, 5, 8, 10, 9, 10, 11, 9, 12, 14, 13, 14, 15, 13, 16, 18, 17, 18, 19, 17, 20, 22, 21, 22, 23, 21]
                rel material:binding = </root/_materials/Material_6_011>
                normal3f[] normals = [(1, 0, 0), (1, 0, 0), (1, 0, 0), (1, 0, 0), (1, 0, 0), (1, 0, 0), (-1, 0, 0), (-1, 0, 0), (-1, 0, 0), (-1, 0, 0), (-1, 0, 0), (-1, 0, 0), (0, 0, 1), (0, 0, 1), (0, 0, 1), (0, 0, 1), (0, 0, 1), (0, 0, 1), (0, 0, -1), (0, 0, -1), (0, 0, -1), (0, 0, -1), (0, 0, -1), (0, 0, -1), (0, -1, 0), (0, -1, 0), (0, -1, 0), (0, -1, 0), (0, -1, 0), (0, -1, 0), (0, 1, 0), (0, 1, 0), (0, 1, 0), (0, 1, 0), (0, 1, 0), (0, 1, 0)] (
                    interpolation = "faceVarying"
                )
                point3f[] points = [(0.175, -0.125, 0.3), (0.175, 0.125, 0.3), (0.175, -0.125, -0.3), (0.175, 0.125, -0.3), (-0.175, 0.125, 0.3), (-0.175, -0.125, 0.3), (-0.175, 0.125, -0.3), (-0.175, -0.125, -0.3), (-0.175, 0.125, 0.3), (0.175, 0.125, 0.3), (-0.175, -0.125, 0.3), (0.175, -0.125, 0.3), (-0.175, -0.125, -0.3), (0.175, -0.125, -0.3), (-0.175, 0.125, -0.3), (0.175, 0.125, -0.3), (-0.175, -0.125, 0.3), (0.175, -0.125, 0.3), (-0.175, -0.125, -0.3), (0.175, -0.125, -0.3), (0.175, 0.125, 0.3), (-0.175, 0.125, 0.3), (0.175, 0.125, -0.3), (-0.175, 0.125, -0.3)]
                texCoord2f[] primvars:st = [(0, 0), (0, 1), (1, 0), (0, 1), (1, 1), (1, 0), (0, 0), (0, 1), (1, 0), (0, 1), (1, 1), (1, 0), (0, 0), (0, 1), (1, 0), (0, 1), (1, 1), (1, 0), (0, 0), (0, 1), (1, 0), (0, 1), (1, 1), (1, 0), (0, 0), (0, 1), (1, 0), (0, 1), (1, 1), (1, 0), (0, 0), (0, 1), (1, 0), (0, 1), (1, 1), (1, 0)] (
                    interpolation = "faceVarying"
                )
                uniform token subdivisionScheme = "none"
                custom string userProperties:blender:data_name = "Mesh_6.011"
            }
        }

        def Xform "support_base"
        {
            custom string userProperties:blender:object_name = "support_base"
            float3 xformOp:rotateXYZ = (0, -0, 0)
            float3 xformOp:scale = (1, 1, 1)
            double3 xformOp:translate = (0, 0, 0.10999999940395355)
            uniform token[] xformOpOrder = ["xformOp:translate", "xformOp:rotateXYZ", "xformOp:scale"]

            def Mesh "Mesh_0_011" (
                active = true
                prepend apiSchemas = ["MaterialBindingAPI"]
            )
            {
                uniform bool doubleSided = 0
                float3[] extent = [(-1.8, -0.8, -0.11), (1.8, 0.8, 0.11)]
                int[] faceVertexCounts = [3, 3, 3, 3, 3, 3, 3, 3, 3, 3, 3, 3]
                int[] faceVertexIndices = [0, 2, 1, 2, 3, 1, 4, 6, 5, 6, 7, 5, 8, 10, 9, 10, 11, 9, 12, 14, 13, 14, 15, 13, 16, 18, 17, 18, 19, 17, 20, 22, 21, 22, 23, 21]
                rel material:binding = </root/_materials/Material_0_011>
                normal3f[] normals = [(0.99999994, 0, 0), (0.99999994, 0, 0), (0.99999994, 0, 0), (0.99999994, 0, 0), (0.99999994, 0, 0), (0.99999994, 0, 0), (-0.99999994, 0, 0), (-0.99999994, 0, 0), (-0.99999994, 0, 0), (-0.99999994, 0, 0), (-0.99999994, 0, 0), (-0.99999994, 0, 0), (0, 0, 1), (0, 0, 1), (0, 0, 1), (0, 0, 1), (0, 0, 1), (0, 0, 1), (0, 0, -1), (0, 0, -1), (0, 0, -1), (0, 0, -1), (0, 0, -1), (0, 0, -1), (0, -1, 0), (0, -1, 0), (0, -1, 0), (0, -1, 0), (0, -1, 0), (0, -1, 0), (0, 1, 0), (0, 1, 0), (0, 1, 0), (0, 1, 0), (0, 1, 0), (0, 1, 0)] (
                    interpolation = "faceVarying"
                )
                point3f[] points = [(1.8, -0.8, 0.11), (1.8, 0.8, 0.11), (1.8, -0.8, -0.11), (1.8, 0.8, -0.11), (-1.8, 0.8, 0.11), (-1.8, -0.8, 0.11), (-1.8, 0.8, -0.11), (-1.8, -0.8, -0.11), (-1.8, 0.8, 0.11), (1.8, 0.8, 0.11), (-1.8, -0.8, 0.11), (1.8, -0.8, 0.11), (-1.8, -0.8, -0.11), (1.8, -0.8, -0.11), (-1.8, 0.8, -0.11), (1.8, 0.8, -0.11), (-1.8, -0.8, 0.11), (1.8, -0.8, 0.11), (-1.8, -0.8, -0.11), (1.8, -0.8, -0.11), (1.8, 0.8, 0.11), (-1.8, 0.8, 0.11), (1.8, 0.8, -0.11), (-1.8, 0.8, -0.11)]
                texCoord2f[] primvars:st = [(0, 0), (0, 1), (1, 0), (0, 1), (1, 1), (1, 0), (0, 0), (0, 1), (1, 0), (0, 1), (1, 1), (1, 0), (0, 0), (0, 1), (1, 0), (0, 1), (1, 1), (1, 0), (0, 0), (0, 1), (1, 0), (0, 1), (1, 1), (1, 0), (0, 0), (0, 1), (1, 0), (0, 1), (1, 1), (1, 0), (0, 0), (0, 1), (1, 0), (0, 1), (1, 1), (1, 0)] (
                    interpolation = "faceVarying"
                )
                uniform token subdivisionScheme = "none"
                custom string userProperties:blender:data_name = "Mesh_0.011"
            }
        }

        def Xform "manifold_pipe_4"
        {
            custom string userProperties:blender:object_name = "manifold_pipe_4"
            float3 xformOp:rotateXYZ = (90.000015, -0, 0)
            float3 xformOp:scale = (1, 1.0000001, 1.0000001)
            double3 xformOp:translate = (1.440000057220459, 0, 0.800000011920929)
            uniform token[] xformOpOrder = ["xformOp:translate", "xformOp:rotateXYZ", "xformOp:scale"]

            def Mesh "Mesh_5_011" (
                active = true
                prepend apiSchemas = ["MaterialBindingAPI"]
            )
            {
                uniform bool doubleSided = 0
                float3[] extent = [(-0.065, -0.065, -0.55), (0.065, 0.065, 0.55)]
                int[] faceVertexCounts = [3, 3, 3, 3, 3, 3, 3, 3, 3, 3, 3, 3, 3, 3, 3, 3, 3, 3, 3, 3, 3, 3, 3, 3, 3, 3, 3, 3, 3, 3, 3, 3, 3, 3, 3, 3, 3, 3, 3, 3, 3, 3, 3, 3, 3, 3, 3, 3, 3, 3, 3, 3, 3, 3, 3, 3, 3, 3, 3, 3, 3, 3, 3, 3]
                int[] faceVertexIndices = [0, 17, 1, 17, 18, 1, 1, 18, 2, 18, 19, 2, 2, 19, 3, 19, 20, 3, 3, 20, 4, 20, 21, 4, 4, 21, 5, 21, 22, 5, 5, 22, 6, 22, 23, 6, 6, 23, 7, 23, 24, 7, 7, 24, 8, 24, 25, 8, 8, 25, 9, 25, 26, 9, 9, 26, 10, 26, 27, 10, 10, 27, 11, 27, 28, 11, 11, 28, 12, 28, 29, 12, 12, 29, 13, 29, 30, 13, 13, 30, 14, 30, 31, 14, 14, 31, 15, 31, 32, 15, 15, 32, 16, 32, 33, 16, 50, 51, 34, 51, 52, 35, 52, 53, 36, 53, 54, 37, 54, 55, 38, 55, 56, 39, 56, 57, 40, 57, 58, 41, 58, 59, 42, 59, 60, 43, 60, 61, 44, 61, 62, 45, 62, 63, 46, 63, 64, 47, 64, 65, 48, 65, 66, 49, 84, 83, 67, 85, 84, 68, 86, 85, 69, 87, 86, 70, 88, 87, 71, 89, 88, 72, 90, 89, 73, 91, 90, 74, 92, 91, 75, 93, 92, 76, 94, 93, 77, 95, 94, 78, 96, 95, 79, 97, 96, 80, 98, 97, 81, 99, 98, 82]
                rel material:binding = </root/_materials/Material_5_011>
                normal3f[] normals = [(0.000041797757, -1.0000001, -0.000009361899), (0.000041797757, -1, 0.000009317721), (0.38268235, -0.9238799, 0), (0.000041797757, -1, 0.000009317721), (0.38268435, -0.92387915, 0), (0.38268235, -0.9238799, 0), (0.38268235, -0.9238799, 0), (0.38268435, -0.92387915, 0), (0.707106, -0.70710754, 0), (0.38268435, -0.92387915, 0), (0.70710754, -0.707106, 0), (0.707106, -0.70710754, 0), (0.707106, -0.70710754, 0), (0.70710754, -0.707106, 0), (0.92387915, -0.3826843, 0), (0.70710754, -0.707106, 0), (0.92388, -0.38268226, 0), (0.92387915, -0.3826843, 0), (0.92387915, -0.3826843, 0), (0.92388, -0.38268226, 0), (1, -0.0000010639387, 0), (0.92388, -0.38268226, 0), (1, 0.0000010639387, 0), (1, -0.0000010639387, 0), (1, -0.0000010639387, 0), (1, 0.0000010639387, 0), (0.92388, 0.38268226, 0), (1, 0.0000010639387, 0), (0.92387915, 0.3826843, 0), (0.92388, 0.38268226, 0), (0.92388, 0.38268226, 0), (0.92387915, 0.3826843, 0), (0.70710754, 0.707106, 0), (0.92387915, 0.3826843, 0), (0.707106, 0.70710754, 0), (0.70710754, 0.707106, 0), (0.70710754, 0.707106, 0), (0.707106, 0.70710754, 0), (0.38268435, 0.92387915, 0), (0.707106, 0.70710754, 0), (0.38268235, 0.9238799, 0), (0.38268435, 0.92387915, 0), (0.38268435, 0.92387915, 0), (0.38268235, 0.9238799, 0), (0.0000010542666, 1, 0), (0.38268235, 0.9238799, 0), (-0.0000010542666, 1, 0), (0.0000010542666, 1, 0), (0.0000010542666, 1, 0), (-0.0000010542666, 1, 0), (-0.38268235, 0.9238799, 0), (-0.0000010542666, 1, 0), (-0.38268435, 0.92387915, 0), (-0.38268235, 0.9238799, 0), (-0.38268235, 0.9238799, 0), (-0.38268435, 0.92387915, 0), (-0.707106, 0.70710754, 0), (-0.38268435, 0.92387915, 0), (-0.70710754, 0.707106, 0), (-0.707106, 0.70710754, 0), (-0.707106, 0.70710754, 0), (-0.70710754, 0.707106, 0), (-0.92387915, 0.3826843, 0), (-0.70710754, 0.707106, 0), (-0.92388, 0.38268226, 0), (-0.92387915, 0.3826843, 0), (-0.92387915, 0.3826843, 0), (-0.92388, 0.38268226, 0), (-1, 0.0000010639387, 0), (-0.92388, 0.38268226, 0), (-1, -0.0000010639387, 0), (-1, 0.0000010639387, 0), (-1, 0.0000010639387, 0), (-1, -0.0000010639387, 0), (-0.92388, -0.38268226, 0), (-1, -0.0000010639387, 0), (-0.92387915, -0.3826843, 0), (-0.92388, -0.38268226, 0), (-0.92388, -0.38268226, 0), (-0.92387915, -0.3826843, 0), (-0.70710754, -0.707106, 0), (-0.92387915, -0.3826843, 0), (-0.707106, -0.70710754, 0), (-0.70710754, -0.707106, 0), (-0.70710754, -0.707106, 0), (-0.707106, -0.70710754, 0), (-0.38268435, -0.92387915, 0), (-0.707106, -0.70710754, 0), (-0.38268235, -0.9238799, 0), (-0.38268435, -0.92387915, 0), (-0.38268435, -0.92387915, 0), (-0.38268235, -0.9238799, 0), (-0.000041797757, -1, -0.000009317721), (-0.38268235, -0.9238799, 0), (-0.000041797757, -1.0000001, 0.000009361899), (-0.000041797757, -1, -0.000009317721), (-0.00000460812, 0, 1), (-0.00000460812, 0, 1), (-0.00000460812, 0, 1), (0, 0, 1), (0, 0, 1), (0, 0, 1), (0, 0, 1), (0, 0, 1), (0, 0, 1), (-2.7078248e-15, 0, 1), (-2.7078248e-15, 0, 1), (-2.7078248e-15, 0, 1), (0, 0, 1), (0, 0, 1), (0, 0, 1), (0, 0, 1), (0, 0, 1), (0, 0, 1), (0, 0, 1), (0, 0, 1), (0, 0, 1), (-0.00000460812, 0, 1), (-0.00000460812, 0, 1), (-0.00000460812, 0, 1), (0.00000460812, 0, 1), (0.00000460812, 0, 1), (0.00000460812, 0, 1), (0, 0, 1), (0, 0, 1), (0, 0, 1), (0, 0, 1), (0, 0, 1), (0, 0, 1), (8.1234746e-15, 0, 1), (8.1234746e-15, 0, 1), (8.1234746e-15, 0, 1), (0, 0, 1), (0, 0, 1), (0, 0, 1), (0, 0, 1), (0, 0, 1), (0, 0, 1), (0, 0, 1), (0, 0, 1), (0, 0, 1), (0.00000460812, 0, 1), (0.00000460812, 0, 1), (0.00000460812, 0, 1), (-0.00000460812, 0, -1), (-0.00000460812, 0, -1), (-0.00000460812, 0, -1), (0, 0, -1), (0, 0, -1), (0, 0, -1), (0, 0, -1), (0, 0, -1), (0, 0, -1), (0, 0, -1), (0, 0, -1), (0, 0, -1), (2.7078248e-15, 0, -1), (2.7078248e-15, 0, -1), (2.7078248e-15, 0, -1), (0, 0, -1), (0, 0, -1), (0, 0, -1), (0, 0, -1), (0, 0, -1), (0, 0, -1), (-0.00000460812, 0, -1), (-0.00000460812, 0, -1), (-0.00000460812, 0, -1), (0.00000460812, 0, -1), (0.00000460812, 0, -1), (0.00000460812, 0, -1), (0, 0, -1), (0, 0, -1), (0, 0, -1), (0, 0, -1), (0, 0, -1), (0, 0, -1), (0, 0, -1), (0, 0, -1), (0, 0, -1), (-8.1234746e-15, 0, -1), (-8.1234746e-15, 0, -1), (-8.1234746e-15, 0, -1), (0, 0, -1), (0, 0, -1), (0, 0, -1), (0, 0, -1), (0, 0, -1), (0, 0, -1), (0.00000460812, 0, -1), (0.00000460812, 0, -1), (0.00000460812, 0, -1)] (
                    interpolation = "faceVarying"
                )
                point3f[] points = [(0, -0.065, 0.55), (0.024874423, -0.06005217, 0.55), (0.045961943, -0.045961943, 0.55), (0.06005217, -0.024874423, 0.55), (0.065, -3.980102e-18, 0.55), (0.06005217, 0.024874423, 0.55), (0.045961943, 0.045961943, 0.55), (0.024874423, 0.06005217, 0.55), (7.960204e-18, 0.065, 0.55), (-0.024874423, 0.06005217, 0.55), (-0.045961943, 0.045961943, 0.55), (-0.06005217, 0.024874423, 0.55), (-0.065, 1.1940307e-17, 0.55), (-0.06005217, -0.024874423, 0.55), (-0.045961943, -0.045961943, 0.55), (-0.024874423, -0.06005217, 0.55), (-1.5920408e-17, -0.065, 0.55), (0, -0.065, -0.55), (0.024874423, -0.06005217, -0.55), (0.045961943, -0.045961943, -0.55), (0.06005217, -0.024874423, -0.55), (0.065, -3.980102e-18, -0.55), (0.06005217, 0.024874423, -0.55), (0.045961943, 0.045961943, -0.55), (0.024874423, 0.06005217, -0.55), (7.960204e-18, 0.065, -0.55), (-0.024874423, 0.06005217, -0.55), (-0.045961943, 0.045961943, -0.55), (-0.06005217, 0.024874423, -0.55), (-0.065, 1.1940307e-17, -0.55), (-0.06005217, -0.024874423, -0.55), (-0.045961943, -0.045961943, -0.55), (-0.024874423, -0.06005217, -0.55), (-1.5920408e-17, -0.065, -0.55), (0, -0, 0.55), (0, -0, 0.55), (0, -0, 0.55), (0, -0, 0.55), (0, -0, 0.55), (0, -0, 0.55), (0, -0, 0.55), (0, -0, 0.55), (0, -0, 0.55), (0, -0, 0.55), (0, -0, 0.55), (0, -0, 0.55), (0, -0, 0.55), (0, -0, 0.55), (0, -0, 0.55), (0, -0, 0.55), (0, -0.065, 0.55), (0.024874423, -0.06005217, 0.55), (0.045961943, -0.045961943, 0.55), (0.06005217, -0.024874423, 0.55), (0.065, -3.980102e-18, 0.55), (0.06005217, 0.024874423, 0.55), (0.045961943, 0.045961943, 0.55), (0.024874423, 0.06005217, 0.55), (7.960204e-18, 0.065, 0.55), (-0.024874423, 0.06005217, 0.55), (-0.045961943, 0.045961943, 0.55), (-0.06005217, 0.024874423, 0.55), (-0.065, 1.1940307e-17, 0.55), (-0.06005217, -0.024874423, 0.55), (-0.045961943, -0.045961943, 0.55), (-0.024874423, -0.06005217, 0.55), (-1.5920408e-17, -0.065, 0.55), (0, -0, -0.55), (0, -0, -0.55), (0, -0, -0.55), (0, -0, -0.55), (0, -0, -0.55), (0, -0, -0.55), (0, -0, -0.55), (0, -0, -0.55), (0, -0, -0.55), (0, -0, -0.55), (0, -0, -0.55), (0, -0, -0.55), (0, -0, -0.55), (0, -0, -0.55), (0, -0, -0.55), (0, -0, -0.55), (0, -0.065, -0.55), (0.024874423, -0.06005217, -0.55), (0.045961943, -0.045961943, -0.55), (0.06005217, -0.024874423, -0.55), (0.065, -3.980102e-18, -0.55), (0.06005217, 0.024874423, -0.55), (0.045961943, 0.045961943, -0.55), (0.024874423, 0.06005217, -0.55), (7.960204e-18, 0.065, -0.55), (-0.024874423, 0.06005217, -0.55), (-0.045961943, 0.045961943, -0.55), (-0.06005217, 0.024874423, -0.55), (-0.065, 1.1940307e-17, -0.55), (-0.06005217, -0.024874423, -0.55), (-0.045961943, -0.045961943, -0.55), (-0.024874423, -0.06005217, -0.55), (-1.5920408e-17, -0.065, -0.55)]
                texCoord2f[] primvars:st = [(0, 0), (0, 1), (0.0625, 0), (0, 1), (0.0625, 1), (0.0625, 0), (0.0625, 0), (0.0625, 1), (0.125, 0), (0.0625, 1), (0.125, 1), (0.125, 0), (0.125, 0), (0.125, 1), (0.1875, 0), (0.125, 1), (0.1875, 1), (0.1875, 0), (0.1875, 0), (0.1875, 1), (0.25, 0), (0.1875, 1), (0.25, 1), (0.25, 0), (0.25, 0), (0.25, 1), (0.3125, 0), (0.25, 1), (0.3125, 1), (0.3125, 0), (0.3125, 0), (0.3125, 1), (0.375, 0), (0.3125, 1), (0.375, 1), (0.375, 0), (0.375, 0), (0.375, 1), (0.4375, 0), (0.375, 1), (0.4375, 1), (0.4375, 0), (0.4375, 0), (0.4375, 1), (0.5, 0), (0.4375, 1), (0.5, 1), (0.5, 0), (0.5, 0), (0.5, 1), (0.5625, 0), (0.5, 1), (0.5625, 1), (0.5625, 0), (0.5625, 0), (0.5625, 1), (0.625, 0), (0.5625, 1), (0.625, 1), (0.625, 0), (0.625, 0), (0.625, 1), (0.6875, 0), (0.625, 1), (0.6875, 1), (0.6875, 0), (0.6875, 0), (0.6875, 1), (0.75, 0), (0.6875, 1), (0.75, 1), (0.75, 0), (0.75, 0), (0.75, 1), (0.8125, 0), (0.75, 1), (0.8125, 1), (0.8125, 0), (0.8125, 0), (0.8125, 1), (0.875, 0), (0.8125, 1), (0.875, 1), (0.875, 0), (0.875, 0), (0.875, 1), (0.9375, 0), (0.875, 1), (0.9375, 1), (0.9375, 0), (0.9375, 0), (0.9375, 1), (1, 0), (0.9375, 1), (1, 1), (1, 0), (1, 0.5), (0.96193975, 0.3086583), (0.5, 0.5), (0.96193975, 0.3086583), (0.8535534, 0.14644659), (0.5, 0.5), (0.8535534, 0.14644659), (0.6913417, 0.038060248), (0.5, 0.5), (0.6913417, 0.038060248), (0.5, 0), (0.5, 0.5), (0.5, 0), (0.30865827, 0.038060248), (0.5, 0.5), (0.30865827, 0.038060248), (0.14644662, 0.14644659), (0.5, 0.5), (0.14644662, 0.14644659), (0.038060233, 0.3086583), (0.5, 0.5), (0.038060233, 0.3086583), (0, 0.5), (0.5, 0.5), (0, 0.5), (0.038060233, 0.69134176), (0.5, 0.5), (0.038060233, 0.69134176), (0.14644662, 0.8535534), (0.5, 0.5), (0.14644662, 0.8535534), (0.30865827, 0.96193975), (0.5, 0.5), (0.30865827, 0.96193975), (0.5, 1), (0.5, 0.5), (0.5, 1), (0.6913417, 0.96193975), (0.5, 0.5), (0.6913417, 0.96193975), (0.8535534, 0.8535534), (0.5, 0.5), (0.8535534, 0.8535534), (0.96193975, 0.69134176), (0.5, 0.5), (0.96193975, 0.69134176), (1, 0.5), (0.5, 0.5), (0.96193975, 0.69134176), (1, 0.5), (0.5, 0.5), (0.8535534, 0.8535534), (0.96193975, 0.69134176), (0.5, 0.5), (0.6913417, 0.96193975), (0.8535534, 0.8535534), (0.5, 0.5), (0.5, 1), (0.6913417, 0.96193975), (0.5, 0.5), (0.30865827, 0.96193975), (0.5, 1), (0.5, 0.5), (0.14644662, 0.8535534), (0.30865827, 0.96193975), (0.5, 0.5), (0.038060233, 0.69134176), (0.14644662, 0.8535534), (0.5, 0.5), (0, 0.5), (0.038060233, 0.69134176), (0.5, 0.5), (0.038060233, 0.3086583), (0, 0.5), (0.5, 0.5), (0.14644662, 0.14644659), (0.038060233, 0.3086583), (0.5, 0.5), (0.30865827, 0.038060248), (0.14644662, 0.14644659), (0.5, 0.5), (0.5, 0), (0.30865827, 0.038060248), (0.5, 0.5), (0.6913417, 0.038060248), (0.5, 0), (0.5, 0.5), (0.8535534, 0.14644659), (0.6913417, 0.038060248), (0.5, 0.5), (0.96193975, 0.3086583), (0.8535534, 0.14644659), (0.5, 0.5), (1, 0.5), (0.96193975, 0.3086583), (0.5, 0.5)] (
                    interpolation = "faceVarying"
                )
                uniform token subdivisionScheme = "none"
                custom string userProperties:blender:data_name = "Mesh_5.011"
            }
        }

        def Xform "fin_3"
        {
            custom string userProperties:blender:object_name = "fin_3"
            float3 xformOp:rotateXYZ = (0, -0, 0)
            float3 xformOp:scale = (1, 1, 1)
            double3 xformOp:translate = (0.7200000286102295, 0, 1.1200000047683716)
            uniform token[] xformOpOrder = ["xformOp:translate", "xformOp:rotateXYZ", "xformOp:scale"]

            def Mesh "Mesh_4_011" (
                active = true
                prepend apiSchemas = ["MaterialBindingAPI"]
            )
            {
                uniform bool doubleSided = 0
                float3[] extent = [(-0.08, -0.4, -0.9), (0.08, 0.4, 0.9)]
                int[] faceVertexCounts = [3, 3, 3, 3, 3, 3, 3, 3, 3, 3, 3, 3]
                int[] faceVertexIndices = [0, 2, 1, 2, 3, 1, 4, 6, 5, 6, 7, 5, 8, 10, 9, 10, 11, 9, 12, 14, 13, 14, 15, 13, 16, 18, 17, 18, 19, 17, 20, 22, 21, 22, 23, 21]
                rel material:binding = </root/_materials/Material_4_011>
                normal3f[] normals = [(1, 0, 0), (1, 0, 0), (1, 0, 0), (1, 0, 0), (1, 0, 0), (1, 0, 0), (-1, 0, 0), (-1, 0, 0), (-1, 0, 0), (-1, 0, 0), (-1, 0, 0), (-1, 0, 0), (0, 0, 1), (0, 0, 1), (0, 0, 1), (0, 0, 1), (0, 0, 1), (0, 0, 1), (0, 0, -1), (0, 0, -1), (0, 0, -1), (0, 0, -1), (0, 0, -1), (0, 0, -1), (0, -1, 0), (0, -1, 0), (0, -1, 0), (0, -1, 0), (0, -1, 0), (0, -1, 0), (0, 1, 0), (0, 1, 0), (0, 1, 0), (0, 1, 0), (0, 1, 0), (0, 1, 0)] (
                    interpolation = "faceVarying"
                )
                point3f[] points = [(0.08, -0.4, 0.9), (0.08, 0.4, 0.9), (0.08, -0.4, -0.9), (0.08, 0.4, -0.9), (-0.08, 0.4, 0.9), (-0.08, -0.4, 0.9), (-0.08, 0.4, -0.9), (-0.08, -0.4, -0.9), (-0.08, 0.4, 0.9), (0.08, 0.4, 0.9), (-0.08, -0.4, 0.9), (0.08, -0.4, 0.9), (-0.08, -0.4, -0.9), (0.08, -0.4, -0.9), (-0.08, 0.4, -0.9), (0.08, 0.4, -0.9), (-0.08, -0.4, 0.9), (0.08, -0.4, 0.9), (-0.08, -0.4, -0.9), (0.08, -0.4, -0.9), (0.08, 0.4, 0.9), (-0.08, 0.4, 0.9), (0.08, 0.4, -0.9), (-0.08, 0.4, -0.9)]
                texCoord2f[] primvars:st = [(0, 0), (0, 1), (1, 0), (0, 1), (1, 1), (1, 0), (0, 0), (0, 1), (1, 0), (0, 1), (1, 1), (1, 0), (0, 0), (0, 1), (1, 0), (0, 1), (1, 1), (1, 0), (0, 0), (0, 1), (1, 0), (0, 1), (1, 1), (1, 0), (0, 0), (0, 1), (1, 0), (0, 1), (1, 1), (1, 0), (0, 0), (0, 1), (1, 0), (0, 1), (1, 1), (1, 0)] (
                    interpolation = "faceVarying"
                )
                uniform token subdivisionScheme = "none"
                custom string userProperties:blender:data_name = "Mesh_4.011"
            }
        }

        def Xform "fin_1"
        {
            custom string userProperties:blender:object_name = "fin_1"
            float3 xformOp:rotateXYZ = (0, -0, 0)
            float3 xformOp:scale = (1, 1, 1)
            double3 xformOp:translate = (-0.7200000286102295, 0, 1.1200000047683716)
            uniform token[] xformOpOrder = ["xformOp:translate", "xformOp:rotateXYZ", "xformOp:scale"]

            def Mesh "Mesh_2_011" (
                active = true
                prepend apiSchemas = ["MaterialBindingAPI"]
            )
            {
                uniform bool doubleSided = 0
                float3[] extent = [(-0.08, -0.4, -0.9), (0.08, 0.4, 0.9)]
                int[] faceVertexCounts = [3, 3, 3, 3, 3, 3, 3, 3, 3, 3, 3, 3]
                int[] faceVertexIndices = [0, 2, 1, 2, 3, 1, 4, 6, 5, 6, 7, 5, 8, 10, 9, 10, 11, 9, 12, 14, 13, 14, 15, 13, 16, 18, 17, 18, 19, 17, 20, 22, 21, 22, 23, 21]
                rel material:binding = </root/_materials/Material_2_011>
                normal3f[] normals = [(1, 0, 0), (1, 0, 0), (1, 0, 0), (1, 0, 0), (1, 0, 0), (1, 0, 0), (-1, 0, 0), (-1, 0, 0), (-1, 0, 0), (-1, 0, 0), (-1, 0, 0), (-1, 0, 0), (0, 0, 1), (0, 0, 1), (0, 0, 1), (0, 0, 1), (0, 0, 1), (0, 0, 1), (0, 0, -1), (0, 0, -1), (0, 0, -1), (0, 0, -1), (0, 0, -1), (0, 0, -1), (0, -1, 0), (0, -1, 0), (0, -1, 0), (0, -1, 0), (0, -1, 0), (0, -1, 0), (0, 1, 0), (0, 1, 0), (0, 1, 0), (0, 1, 0), (0, 1, 0), (0, 1, 0)] (
                    interpolation = "faceVarying"
                )
                point3f[] points = [(0.08, -0.4, 0.9), (0.08, 0.4, 0.9), (0.08, -0.4, -0.9), (0.08, 0.4, -0.9), (-0.08, 0.4, 0.9), (-0.08, -0.4, 0.9), (-0.08, 0.4, -0.9), (-0.08, -0.4, -0.9), (-0.08, 0.4, 0.9), (0.08, 0.4, 0.9), (-0.08, -0.4, 0.9), (0.08, -0.4, 0.9), (-0.08, -0.4, -0.9), (0.08, -0.4, -0.9), (-0.08, 0.4, -0.9), (0.08, 0.4, -0.9), (-0.08, -0.4, 0.9), (0.08, -0.4, 0.9), (-0.08, -0.4, -0.9), (0.08, -0.4, -0.9), (0.08, 0.4, 0.9), (-0.08, 0.4, 0.9), (0.08, 0.4, -0.9), (-0.08, 0.4, -0.9)]
                texCoord2f[] primvars:st = [(0, 0), (0, 1), (1, 0), (0, 1), (1, 1), (1, 0), (0, 0), (0, 1), (1, 0), (0, 1), (1, 1), (1, 0), (0, 0), (0, 1), (1, 0), (0, 1), (1, 1), (1, 0), (0, 0), (0, 1), (1, 0), (0, 1), (1, 1), (1, 0), (0, 0), (0, 1), (1, 0), (0, 1), (1, 1), (1, 0), (0, 0), (0, 1), (1, 0), (0, 1), (1, 1), (1, 0)] (
                    interpolation = "faceVarying"
                )
                uniform token subdivisionScheme = "none"
                custom string userProperties:blender:data_name = "Mesh_2.011"
            }
        }
    }

    def Scope "_materials"
    {
        def Material "Material_3_011"
        {
            token outputs:surface.connect = </root/_materials/Material_3_011/Principled_BSDF.outputs:surface>
            custom string userProperties:blender:data_name = "Material_3.011"

            def Shader "Principled_BSDF"
            {
                uniform token info:id = "UsdPreviewSurface"
                float inputs:clearcoat = 0
                float inputs:clearcoatRoughness = 0.03
                color3f inputs:diffuseColor = (0.004391442, 0.1746474, 0.27889428)
                float inputs:ior = 1.5
                float inputs:metallic = 0.25
                float inputs:opacity = 1
                float inputs:roughness = 0.55
                float inputs:specular = 0.5
                token outputs:surface
            }
        }

        def Material "Material_1_011"
        {
            token outputs:surface.connect = </root/_materials/Material_1_011/Principled_BSDF.outputs:surface>
            custom string userProperties:blender:data_name = "Material_1.011"

            def Shader "Principled_BSDF"
            {
                uniform token info:id = "UsdPreviewSurface"
                float inputs:clearcoat = 0
                float inputs:clearcoatRoughness = 0.03
                color3f inputs:diffuseColor = (0.004391442, 0.1746474, 0.27889428)
                float inputs:ior = 1.5
                float inputs:metallic = 0.25
                float inputs:opacity = 1
                float inputs:roughness = 0.55
                float inputs:specular = 0.5
                token outputs:surface
            }
        }

        def Material "Material_7_010"
        {
            token outputs:surface.connect = </root/_materials/Material_7_010/Principled_BSDF.outputs:surface>
            custom string userProperties:blender:data_name = "Material_7.010"

            def Shader "Principled_BSDF"
            {
                uniform token info:id = "UsdPreviewSurface"
                float inputs:clearcoat = 0
                float inputs:clearcoatRoughness = 0.03
                color3f inputs:diffuseColor = (0.039546236, 0.50888133, 0.9386857)
                float inputs:ior = 1.5
                float inputs:metallic = 0.25
                float inputs:opacity = 1
                float inputs:roughness = 0.55
                float inputs:specular = 0.5
                token outputs:surface
            }
        }

        def Material "Material_6_011"
        {
            token outputs:surface.connect = </root/_materials/Material_6_011/Principled_BSDF.outputs:surface>
            custom string userProperties:blender:data_name = "Material_6.011"

            def Shader "Principled_BSDF"
            {
                uniform token info:id = "UsdPreviewSurface"
                float inputs:clearcoat = 0
                float inputs:clearcoatRoughness = 0.03
                color3f inputs:diffuseColor = (0.0129830325, 0.022173885, 0.04373503)
                float inputs:ior = 1.5
                float inputs:metallic = 0.25
                float inputs:opacity = 1
                float inputs:roughness = 0.55
                float inputs:specular = 0.5
                token outputs:surface
            }
        }

        def Material "Material_0_011"
        {
            token outputs:surface.connect = </root/_materials/Material_0_011/Principled_BSDF.outputs:surface>
            custom string userProperties:blender:data_name = "Material_0.011"

            def Shader "Principled_BSDF"
            {
                uniform token info:id = "UsdPreviewSurface"
                float inputs:clearcoat = 0
                float inputs:clearcoatRoughness = 0.03
                color3f inputs:diffuseColor = (0.033104766, 0.052860647, 0.09084171)
                float inputs:ior = 1.5
                float inputs:metallic = 0.25
                float inputs:opacity = 1
                float inputs:roughness = 0.55
                float inputs:specular = 0.5
                token outputs:surface
            }
        }

        def Material "Material_5_011"
        {
            token outputs:surface.connect = </root/_materials/Material_5_011/Principled_BSDF.outputs:surface>
            custom string userProperties:blender:data_name = "Material_5.011"

            def Shader "Principled_BSDF"
            {
                uniform token info:id = "UsdPreviewSurface"
                float inputs:clearcoat = 0
                float inputs:clearcoatRoughness = 0.03
                color3f inputs:diffuseColor = (0.29613826, 0.3662526, 0.47932017)
                float inputs:ior = 1.5
                float inputs:metallic = 0.25
                float inputs:opacity = 1
                float inputs:roughness = 0.55
                float inputs:specular = 0.5
                token outputs:surface
            }
        }

        def Material "Material_4_011"
        {
            token outputs:surface.connect = </root/_materials/Material_4_011/Principled_BSDF.outputs:surface>
            custom string userProperties:blender:data_name = "Material_4.011"

            def Shader "Principled_BSDF"
            {
                uniform token info:id = "UsdPreviewSurface"
                float inputs:clearcoat = 0
                float inputs:clearcoatRoughness = 0.03
                color3f inputs:diffuseColor = (0.004391442, 0.1746474, 0.27889428)
                float inputs:ior = 1.5
                float inputs:metallic = 0.25
                float inputs:opacity = 1
                float inputs:roughness = 0.55
                float inputs:specular = 0.5
                token outputs:surface
            }
        }

        def Material "Material_2_011"
        {
            token outputs:surface.connect = </root/_materials/Material_2_011/Principled_BSDF.outputs:surface>
            custom string userProperties:blender:data_name = "Material_2.011"

            def Shader "Principled_BSDF"
            {
                uniform token info:id = "UsdPreviewSurface"
                float inputs:clearcoat = 0
                float inputs:clearcoatRoughness = 0.03
                color3f inputs:diffuseColor = (0.004391442, 0.1746474, 0.27889428)
                float inputs:ior = 1.5
                float inputs:metallic = 0.25
                float inputs:opacity = 1
                float inputs:roughness = 0.55
                float inputs:specular = 0.5
                token outputs:surface
            }
        }
    }

    def DomeLight "env_light"
    {
        float inputs:intensity = 1
        asset inputs:texture:file = @./textures/color_121212.hdr@
        float3 xformOp:rotateXYZ = (90, -0, 90)
        uniform token[] xformOpOrder = ["xformOp:rotateXYZ"]
    }
}

