#usda 1.0
(
    defaultPrim = "root"
    doc = "Blender v4.5.0"
    metersPerUnit = 1
    upAxis = "Z"
)

def Xform "root" (
    customData = {
        dictionary Blender = {
            bool generated = 1
        }
    }
)
{
    def Xform "A521"
    {
        custom string userProperties:assetId = "A521"
        custom bool userProperties:authoritativeSource = 0
        custom string userProperties:blender:object_name = "A521"
        custom string userProperties:coordinateSystem = "RIGHT_HANDED_Y_UP"
        custom string userProperties:dimensionalAccuracy = "CONCEPTUAL"
        custom string userProperties:forwardDirection = "+Z"
        custom string userProperties:generatedFrom = "Catalog identity and individually authored assembly recipe"
        custom bool userProperties:motionCandidate = 0
        custom string userProperties:originPolicy = "floor centre; instance XZ unchanged"
        custom bool userProperties:physicalPortVerified = 0
        custom string userProperties:representationClass = "CUSTOM_GENERATED_CONCEPTUAL"
        custom string userProperties:unit = "m"

        def Xform "ram_1"
        {
            custom string userProperties:blender:object_name = "ram_1"
            float3 xformOp:rotateXYZ = (0, -0, 0)
            float3 xformOp:scale = (1, 1, 1)
            double3 xformOp:translate = (-0.36000001430511475, 0, 0.6200000047683716)
            uniform token[] xformOpOrder = ["xformOp:translate", "xformOp:rotateXYZ", "xformOp:scale"]

            def Mesh "Mesh_6_043" (
                active = true
                prepend apiSchemas = ["MaterialBindingAPI"]
            )
            {
                uniform bool doubleSided = 0
                float3[] extent = [(-0.265, -0.5, -0.4), (0.265, 0.5, 0.4)]
                int[] faceVertexCounts = [3, 3, 3, 3, 3, 3, 3, 3, 3, 3, 3, 3]
                int[] faceVertexIndices = [0, 2, 1, 2, 3, 1, 4, 6, 5, 6, 7, 5, 8, 10, 9, 10, 11, 9, 12, 14, 13, 14, 15, 13, 16, 18, 17, 18, 19, 17, 20, 22, 21, 22, 23, 21]
                rel material:binding = </root/_materials/Material_6_043>
                normal3f[] normals = [(1, 0, 0), (1, 0, 0), (1, 0, 0), (1, 0, 0), (1, 0, 0), (1, 0, 0), (-1, 0, 0), (-1, 0, 0), (-1, 0, 0), (-1, 0, 0), (-1, 0, 0), (-1, 0, 0), (0, 0, 1), (0, 0, 1), (0, 0, 1), (0, 0, 1), (0, 0, 1), (0, 0, 1), (0, 0, -1), (0, 0, -1), (0, 0, -1), (0, 0, -1), (0, 0, -1), (0, 0, -1), (0, -1, 0), (0, -1, 0), (0, -1, 0), (0, -1, 0), (0, -1, 0), (0, -1, 0), (0, 1, 0), (0, 1, 0), (0, 1, 0), (0, 1, 0), (0, 1, 0), (0, 1, 0)] (
                    interpolation = "faceVarying"
                )
                point3f[] points = [(0.265, -0.5, 0.4), (0.265, 0.5, 0.4), (0.265, -0.5, -0.4), (0.265, 0.5, -0.4), (-0.265, 0.5, 0.4), (-0.265, -0.5, 0.4), (-0.265, 0.5, -0.4), (-0.265, -0.5, -0.4), (-0.265, 0.5, 0.4), (0.265, 0.5, 0.4), (-0.265, -0.5, 0.4), (0.265, -0.5, 0.4), (-0.265, -0.5, -0.4), (0.265, -0.5, -0.4), (-0.265, 0.5, -0.4), (0.265, 0.5, -0.4), (-0.265, -0.5, 0.4), (0.265, -0.5, 0.4), (-0.265, -0.5, -0.4), (0.265, -0.5, -0.4), (0.265, 0.5, 0.4), (-0.265, 0.5, 0.4), (0.265, 0.5, -0.4), (-0.265, 0.5, -0.4)]
                texCoord2f[] primvars:st = [(0, 0), (0, 1), (1, 0), (0, 1), (1, 1), (1, 0), (0, 0), (0, 1), (1, 0), (0, 1), (1, 1), (1, 0), (0, 0), (0, 1), (1, 0), (0, 1), (1, 1), (1, 0), (0, 0), (0, 1), (1, 0), (0, 1), (1, 1), (1, 0), (0, 0), (0, 1), (1, 0), (0, 1), (1, 1), (1, 0), (0, 0), (0, 1), (1, 0), (0, 1), (1, 1), (1, 0)] (
                    interpolation = "faceVarying"
                )
                uniform token subdivisionScheme = "none"
                custom string userProperties:blender:data_name = "Mesh_6.043"
            }
        }

        def Xform "display"
        {
            custom string userProperties:blender:object_name = "display"
            float3 xformOp:rotateXYZ = (0, -0, 0)
            float3 xformOp:scale = (1, 1, 1)
            double3 xformOp:translate = (1.2400000095367432, -0.9549999833106995, 1)
            uniform token[] xformOpOrder = ["xformOp:translate", "xformOp:rotateXYZ", "xformOp:scale"]

            def Mesh "Mesh_16_019" (
                active = true
                prepend apiSchemas = ["MaterialBindingAPI"]
            )
            {
                uniform bool doubleSided = 0
                float3[] extent = [(-0.13, -0.01, -0.1), (0.13, 0.01, 0.1)]
                int[] faceVertexCounts = [3, 3, 3, 3, 3, 3, 3, 3, 3, 3, 3, 3]
                int[] faceVertexIndices = [0, 2, 1, 2, 3, 1, 4, 6, 5, 6, 7, 5, 8, 10, 9, 10, 11, 9, 12, 14, 13, 14, 15, 13, 16, 18, 17, 18, 19, 17, 20, 22, 21, 22, 23, 21]
                rel material:binding = </root/_materials/Material_16_019>
                normal3f[] normals = [(1, 0, 0), (1, 0, 0), (1, 0, 0), (1, 0, 0), (1, 0, 0), (1, 0, 0), (-1, 0, 0), (-1, 0, 0), (-1, 0, 0), (-1, 0, 0), (-1, 0, 0), (-1, 0, 0), (0, 0, 1), (0, 0, 1), (0, 0, 1), (0, 0, 1), (0, 0, 1), (0, 0, 1), (0, 0, -1), (0, 0, -1), (0, 0, -1), (0, 0, -1), (0, 0, -1), (0, 0, -1), (0, -1, 0), (0, -1, 0), (0, -1, 0), (0, -1, 0), (0, -1, 0), (0, -1, 0), (0, 1, 0), (0, 1, 0), (0, 1, 0), (0, 1, 0), (0, 1, 0), (0, 1, 0)] (
                    interpolation = "faceVarying"
                )
                point3f[] points = [(0.13, -0.01, 0.1), (0.13, 0.01, 0.1), (0.13, -0.01, -0.1), (0.13, 0.01, -0.1), (-0.13, 0.01, 0.1), (-0.13, -0.01, 0.1), (-0.13, 0.01, -0.1), (-0.13, -0.01, -0.1), (-0.13, 0.01, 0.1), (0.13, 0.01, 0.1), (-0.13, -0.01, 0.1), (0.13, -0.01, 0.1), (-0.13, -0.01, -0.1), (0.13, -0.01, -0.1), (-0.13, 0.01, -0.1), (0.13, 0.01, -0.1), (-0.13, -0.01, 0.1), (0.13, -0.01, 0.1), (-0.13, -0.01, -0.1), (0.13, -0.01, -0.1), (0.13, 0.01, 0.1), (-0.13, 0.01, 0.1), (0.13, 0.01, -0.1), (-0.13, 0.01, -0.1)]
                texCoord2f[] primvars:st = [(0, 0), (0, 1), (1, 0), (0, 1), (1, 1), (1, 0), (0, 0), (0, 1), (1, 0), (0, 1), (1, 1), (1, 0), (0, 0), (0, 1), (1, 0), (0, 1), (1, 1), (1, 0), (0, 0), (0, 1), (1, 0), (0, 1), (1, 1), (1, 0), (0, 0), (0, 1), (1, 0), (0, 1), (1, 1), (1, 0), (0, 0), (0, 1), (1, 0), (0, 1), (1, 1), (1, 0)] (
                    interpolation = "faceVarying"
                )
                uniform token subdivisionScheme = "none"
                custom string userProperties:blender:data_name = "Mesh_16.019"
            }
        }

        def Xform "tray_bottom_0"
        {
            custom string userProperties:blender:object_name = "tray_bottom_0"
            float3 xformOp:rotateXYZ = (0, -0, 0)
            float3 xformOp:scale = (1, 1, 1)
            double3 xformOp:translate = (-1.0800000429153442, 0, 0.30000001192092896)
            uniform token[] xformOpOrder = ["xformOp:translate", "xformOp:rotateXYZ", "xformOp:scale"]

            def Mesh "Mesh_1_043" (
                active = true
                prepend apiSchemas = ["MaterialBindingAPI"]
            )
            {
                uniform bool doubleSided = 0
                float3[] extent = [(-0.3, -0.5, -0.04), (0.3, 0.5, 0.04)]
                int[] faceVertexCounts = [3, 3, 3, 3, 3, 3, 3, 3, 3, 3, 3, 3]
                int[] faceVertexIndices = [0, 2, 1, 2, 3, 1, 4, 6, 5, 6, 7, 5, 8, 10, 9, 10, 11, 9, 12, 14, 13, 14, 15, 13, 16, 18, 17, 18, 19, 17, 20, 22, 21, 22, 23, 21]
                rel material:binding = </root/_materials/Material_1_043>
                normal3f[] normals = [(1, 0, 0), (1, 0, 0), (1, 0, 0), (1, 0, 0), (1, 0, 0), (1, 0, 0), (-1, 0, 0), (-1, 0, 0), (-1, 0, 0), (-1, 0, 0), (-1, 0, 0), (-1, 0, 0), (0, 0, 1), (0, 0, 1), (0, 0, 1), (0, 0, 1), (0, 0, 1), (0, 0, 1), (0, 0, -1), (0, 0, -1), (0, 0, -1), (0, 0, -1), (0, 0, -1), (0, 0, -1), (0, -1, 0), (0, -1, 0), (0, -1, 0), (0, -1, 0), (0, -1, 0), (0, -1, 0), (0, 1, 0), (0, 1, 0), (0, 1, 0), (0, 1, 0), (0, 1, 0), (0, 1, 0)] (
                    interpolation = "faceVarying"
                )
                point3f[] points = [(0.3, -0.5, 0.04), (0.3, 0.5, 0.04), (0.3, -0.5, -0.04), (0.3, 0.5, -0.04), (-0.3, 0.5, 0.04), (-0.3, -0.5, 0.04), (-0.3, 0.5, -0.04), (-0.3, -0.5, -0.04), (-0.3, 0.5, 0.04), (0.3, 0.5, 0.04), (-0.3, -0.5, 0.04), (0.3, -0.5, 0.04), (-0.3, -0.5, -0.04), (0.3, -0.5, -0.04), (-0.3, 0.5, -0.04), (0.3, 0.5, -0.04), (-0.3, -0.5, 0.04), (0.3, -0.5, 0.04), (-0.3, -0.5, -0.04), (0.3, -0.5, -0.04), (0.3, 0.5, 0.04), (-0.3, 0.5, 0.04), (0.3, 0.5, -0.04), (-0.3, 0.5, -0.04)]
                texCoord2f[] primvars:st = [(0, 0), (0, 1), (1, 0), (0, 1), (1, 1), (1, 0), (0, 0), (0, 1), (1, 0), (0, 1), (1, 1), (1, 0), (0, 0), (0, 1), (1, 0), (0, 1), (1, 1), (1, 0), (0, 0), (0, 1), (1, 0), (0, 1), (1, 1), (1, 0), (0, 0), (0, 1), (1, 0), (0, 1), (1, 1), (1, 0), (0, 0), (0, 1), (1, 0), (0, 1), (1, 1), (1, 0)] (
                    interpolation = "faceVarying"
                )
                uniform token subdivisionScheme = "none"
                custom string userProperties:blender:data_name = "Mesh_1.043"
            }
        }

        def Xform "conveyor_idler_3_2"
        {
            custom string userProperties:blender:object_name = "conveyor_idler_3_2"
            float3 xformOp:rotateXYZ = (90.000015, -0, 0)
            float3 xformOp:scale = (1, 1.0000001, 1.0000001)
            double3 xformOp:translate = (1, 0, 0.5299999713897705)
            uniform token[] xformOpOrder = ["xformOp:translate", "xformOp:rotateXYZ", "xformOp:scale"]

            def Mesh "Mesh_11_031" (
                active = true
                prepend apiSchemas = ["MaterialBindingAPI"]
            )
            {
                uniform bool doubleSided = 0
                float3[] extent = [(-0.045, -0.045, -0.45), (0.045, 0.045, 0.45)]
                int[] faceVertexCounts = [3, 3, 3, 3, 3, 3, 3, 3, 3, 3, 3, 3, 3, 3, 3, 3, 3, 3, 3, 3, 3, 3, 3, 3, 3, 3, 3, 3, 3, 3, 3, 3, 3, 3, 3, 3, 3, 3, 3, 3, 3, 3, 3, 3, 3, 3, 3, 3]
                int[] faceVertexIndices = [0, 13, 1, 13, 14, 1, 1, 14, 2, 14, 15, 2, 2, 15, 3, 15, 16, 3, 3, 16, 4, 16, 17, 4, 4, 17, 5, 17, 18, 5, 5, 18, 6, 18, 19, 6, 6, 19, 7, 19, 20, 7, 7, 20, 8, 20, 21, 8, 8, 21, 9, 21, 22, 9, 9, 22, 10, 22, 23, 10, 10, 23, 11, 23, 24, 11, 11, 24, 12, 24, 25, 12, 38, 39, 26, 39, 40, 27, 40, 41, 28, 41, 42, 29, 42, 43, 30, 43, 44, 31, 44, 45, 32, 45, 46, 33, 46, 47, 34, 47, 48, 35, 48, 49, 36, 49, 50, 37, 64, 63, 51, 65, 64, 52, 66, 65, 53, 67, 66, 54, 68, 67, 55, 69, 68, 56, 70, 69, 57, 71, 70, 58, 72, 71, 59, 73, 72, 60, 74, 73, 61, 75, 74, 62]
                rel material:binding = </root/_materials/Material_11_031>
                normal3f[] normals = [(0.000055909157, -1, -0.000012420108), (0.000055879354, -1, 0.000086826636), (0.49999863, -0.86602616, 0), (0.000055879354, -1, 0.000086826636), (0.5000013, -0.8660246, 0), (0.49999863, -0.86602616, 0), (0.49999863, -0.86602616, 0), (0.5000013, -0.8660246, 0), (0.8660247, -0.5000013, 0), (0.5000013, -0.8660246, 0), (0.86602616, -0.49999872, 0), (0.8660247, -0.5000013, 0), (0.8660247, -0.5000013, 0), (0.86602616, -0.49999872, 0), (1, -0.0000013945761, 0), (0.86602616, -0.49999872, 0), (1, 0.0000013945761, 0), (1, -0.0000013945761, 0), (1, -0.0000013945761, 0), (1, 0.0000013945761, 0), (0.86602616, 0.49999872, 0), (1, 0.0000013945761, 0), (0.8660247, 0.5000013, 0), (0.86602616, 0.49999872, 0), (0.86602616, 0.49999872, 0), (0.8660247, 0.5000013, 0), (0.5000013, 0.8660246, 0), (0.8660247, 0.5000013, 0), (0.49999863, 0.86602616, 0), (0.5000013, 0.8660246, 0), (0.5000013, 0.8660246, 0), (0.49999863, 0.86602616, 0), (0.0000015713534, 1, 0), (0.49999863, 0.86602616, 0), (-0.0000015713534, 1, 0), (0.0000015713534, 1, 0), (0.0000015713534, 1, 0), (-0.0000015713534, 1, 0), (-0.49999863, 0.86602616, 0), (-0.0000015713534, 1, 0), (-0.5000013, 0.8660246, 0), (-0.49999863, 0.86602616, 0), (-0.49999863, 0.86602616, 0), (-0.5000013, 0.8660246, 0), (-0.8660247, 0.5000013, 0), (-0.5000013, 0.8660246, 0), (-0.86602616, 0.49999872, 0), (-0.8660247, 0.5000013, 0), (-0.8660247, 0.5000013, 0), (-0.86602616, 0.49999872, 0), (-1, 0.0000013945761, 0), (-0.86602616, 0.49999872, 0), (-1, -0.0000013945761, 0), (-1, 0.0000013945761, 0), (-1, 0.0000013945761, 0), (-1, -0.0000013945761, 0), (-0.86602616, -0.49999872, 0), (-1, -0.0000013945761, 0), (-0.8660247, -0.5000013, 0), (-0.86602616, -0.49999872, 0), (-0.86602616, -0.49999872, 0), (-0.8660247, -0.5000013, 0), (-0.5000013, -0.8660246, 0), (-0.8660247, -0.5000013, 0), (-0.49999863, -0.86602616, 0), (-0.5000013, -0.8660246, 0), (-0.5000013, -0.8660246, 0), (-0.49999863, -0.86602616, 0), (-0.000055879354, -1, -0.000086826636), (-0.49999863, -0.86602616, 0), (-0.000055909157, -1, 0.000012420108), (-0.000055879354, -1, -0.000086826636), (0, 0, 1), (0, 0, 1), (0, 0, 1), (0, 0, 1), (0, 0, 1), (0, 0, 1), (-2.4492932e-15, 0, 1), (-2.4492932e-15, 0, 1), (-2.4492932e-15, 0, 1), (0, 0, 1), (0, 0, 1), (0, 0, 1), (0, 0, 1), (0, 0, 1), (0, 0, 1), (0, 0, 1), (0, 0, 1), (0, 0, 1), (0, 0, 1), (0, 0, 1), (0, 0, 1), (0, 0, 1), (0, 0, 1), (0, 0, 1), (7.347879e-15, 0, 1), (7.347879e-15, 0, 1), (7.347879e-15, 0, 1), (0, 0, 1), (0, 0, 1), (0, 0, 1), (0, 0, 1), (0, 0, 1), (0, 0, 1), (0, 0, 1), (0, 0, 1), (0, 0, 1), (0, 0, -1), (0, 0, -1), (0, 0, -1), (0, 0, -1), (0, 0, -1), (0, 0, -1), (0, 0, -1), (0, 0, -1), (0, 0, -1), (2.4492932e-15, 0, -1), (2.4492932e-15, 0, -1), (2.4492932e-15, 0, -1), (0, 0, -1), (0, 0, -1), (0, 0, -1), (0, 0, -1), (0, 0, -1), (0, 0, -1), (0, 0, -1), (0, 0, -1), (0, 0, -1), (0, 0, -1), (0, 0, -1), (0, 0, -1), (0, 0, -1), (0, 0, -1), (0, 0, -1), (-7.347879e-15, 0, -1), (-7.347879e-15, 0, -1), (-7.347879e-15, 0, -1), (0, 0, -1), (0, 0, -1), (0, 0, -1), (0, 0, -1), (0, 0, -1), (0, 0, -1)] (
                    interpolation = "faceVarying"
                )
                point3f[] points = [(0, -0.045, 0.45), (0.0225, -0.038971145, 0.45), (0.038971145, -0.0225, 0.45), (0.045, -2.7554553e-18, 0.45), (0.038971145, 0.0225, 0.45), (0.0225, 0.038971145, 0.45), (5.5109105e-18, 0.045, 0.45), (-0.0225, 0.038971145, 0.45), (-0.038971145, 0.0225, 0.45), (-0.045, 8.266366e-18, 0.45), (-0.038971145, -0.0225, 0.45), (-0.0225, -0.038971145, 0.45), (-1.1021821e-17, -0.045, 0.45), (0, -0.045, -0.45), (0.0225, -0.038971145, -0.45), (0.038971145, -0.0225, -0.45), (0.045, -2.7554553e-18, -0.45), (0.038971145, 0.0225, -0.45), (0.0225, 0.038971145, -0.45), (5.5109105e-18, 0.045, -0.45), (-0.0225, 0.038971145, -0.45), (-0.038971145, 0.0225, -0.45), (-0.045, 8.266366e-18, -0.45), (-0.038971145, -0.0225, -0.45), (-0.0225, -0.038971145, -0.45), (-1.1021821e-17, -0.045, -0.45), (0, -0, 0.45), (0, -0, 0.45), (0, -0, 0.45), (0, -0, 0.45), (0, -0, 0.45), (0, -0, 0.45), (0, -0, 0.45), (0, -0, 0.45), (0, -0, 0.45), (0, -0, 0.45), (0, -0, 0.45), (0, -0, 0.45), (0, -0.045, 0.45), (0.0225, -0.038971145, 0.45), (0.038971145, -0.0225, 0.45), (0.045, -2.7554553e-18, 0.45), (0.038971145, 0.0225, 0.45), (0.0225, 0.038971145, 0.45), (5.5109105e-18, 0.045, 0.45), (-0.0225, 0.038971145, 0.45), (-0.038971145, 0.0225, 0.45), (-0.045, 8.266366e-18, 0.45), (-0.038971145, -0.0225, 0.45), (-0.0225, -0.038971145, 0.45), (-1.1021821e-17, -0.045, 0.45), (0, -0, -0.45), (0, -0, -0.45), (0, -0, -0.45), (0, -0, -0.45), (0, -0, -0.45), (0, -0, -0.45), (0, -0, -0.45), (0, -0, -0.45), (0, -0, -0.45), (0, -0, -0.45), (0, -0, -0.45), (0, -0, -0.45), (0, -0.045, -0.45), (0.0225, -0.038971145, -0.45), (0.038971145, -0.0225, -0.45), (0.045, -2.7554553e-18, -0.45), (0.038971145, 0.0225, -0.45), (0.0225, 0.038971145, -0.45), (5.5109105e-18, 0.045, -0.45), (-0.0225, 0.038971145, -0.45), (-0.038971145, 0.0225, -0.45), (-0.045, 8.266366e-18, -0.45), (-0.038971145, -0.0225, -0.45), (-0.0225, -0.038971145, -0.45), (-1.1021821e-17, -0.045, -0.45)]
                texCoord2f[] primvars:st = [(0, 0), (0, 1), (0.083333336, 0), (0, 1), (0.083333336, 1), (0.083333336, 0), (0.083333336, 0), (0.083333336, 1), (0.16666667, 0), (0.083333336, 1), (0.16666667, 1), (0.16666667, 0), (0.16666667, 0), (0.16666667, 1), (0.25, 0), (0.16666667, 1), (0.25, 1), (0.25, 0), (0.25, 0), (0.25, 1), (0.33333334, 0), (0.25, 1), (0.33333334, 1), (0.33333334, 0), (0.33333334, 0), (0.33333334, 1), (0.41666666, 0), (0.33333334, 1), (0.41666666, 1), (0.41666666, 0), (0.41666666, 0), (0.41666666, 1), (0.5, 0), (0.41666666, 1), (0.5, 1), (0.5, 0), (0.5, 0), (0.5, 1), (0.5833333, 0), (0.5, 1), (0.5833333, 1), (0.5833333, 0), (0.5833333, 0), (0.5833333, 1), (0.6666667, 0), (0.5833333, 1), (0.6666667, 1), (0.6666667, 0), (0.6666667, 0), (0.6666667, 1), (0.75, 0), (0.6666667, 1), (0.75, 1), (0.75, 0), (0.75, 0), (0.75, 1), (0.8333333, 0), (0.75, 1), (0.8333333, 1), (0.8333333, 0), (0.8333333, 0), (0.8333333, 1), (0.9166667, 0), (0.8333333, 1), (0.9166667, 1), (0.9166667, 0), (0.9166667, 0), (0.9166667, 1), (1, 0), (0.9166667, 1), (1, 1), (1, 0), (1, 0.5), (0.9330127, 0.25), (0.5, 0.5), (0.9330127, 0.25), (0.75, 0.066987276), (0.5, 0.5), (0.75, 0.066987276), (0.5, 0), (0.5, 0.5), (0.5, 0), (0.25, 0.066987276), (0.5, 0.5), (0.25, 0.066987276), (0.0669873, 0.25), (0.5, 0.5), (0.0669873, 0.25), (0, 0.5), (0.5, 0.5), (0, 0.5), (0.0669873, 0.75), (0.5, 0.5), (0.0669873, 0.75), (0.25, 0.9330127), (0.5, 0.5), (0.25, 0.9330127), (0.5, 1), (0.5, 0.5), (0.5, 1), (0.75, 0.9330127), (0.5, 0.5), (0.75, 0.9330127), (0.9330127, 0.75), (0.5, 0.5), (0.9330127, 0.75), (1, 0.5), (0.5, 0.5), (0.9330127, 0.75), (1, 0.5), (0.5, 0.5), (0.75, 0.9330127), (0.9330127, 0.75), (0.5, 0.5), (0.5, 1), (0.75, 0.9330127), (0.5, 0.5), (0.25, 0.9330127), (0.5, 1), (0.5, 0.5), (0.0669873, 0.75), (0.25, 0.9330127), (0.5, 0.5), (0, 0.5), (0.0669873, 0.75), (0.5, 0.5), (0.0669873, 0.25), (0, 0.5), (0.5, 0.5), (0.25, 0.066987276), (0.0669873, 0.25), (0.5, 0.5), (0.5, 0), (0.25, 0.066987276), (0.5, 0.5), (0.75, 0.066987276), (0.5, 0), (0.5, 0.5), (0.9330127, 0.25), (0.75, 0.066987276), (0.5, 0.5), (1, 0.5), (0.9330127, 0.25), (0.5, 0.5)] (
                    interpolation = "faceVarying"
                )
                uniform token subdivisionScheme = "none"
                custom string userProperties:blender:data_name = "Mesh_11.031"
            }
        }

        def Xform "guide_2"
        {
            custom string userProperties:blender:object_name = "guide_2"
            float3 xformOp:rotateXYZ = (0, -0, 0)
            float3 xformOp:scale = (1, 1, 1)
            double3 xformOp:translate = (0.36000001430511475, 0, 1.1200000047683716)
            uniform token[] xformOpOrder = ["xformOp:translate", "xformOp:rotateXYZ", "xformOp:scale"]

            def Mesh "Mesh_7_041" (
                active = true
                prepend apiSchemas = ["MaterialBindingAPI"]
            )
            {
                uniform bool doubleSided = 0
                float3[] extent = [(-0.08, -0.4, -0.9), (0.08, 0.4, 0.9)]
                int[] faceVertexCounts = [3, 3, 3, 3, 3, 3, 3, 3, 3, 3, 3, 3]
                int[] faceVertexIndices = [0, 2, 1, 2, 3, 1, 4, 6, 5, 6, 7, 5, 8, 10, 9, 10, 11, 9, 12, 14, 13, 14, 15, 13, 16, 18, 17, 18, 19, 17, 20, 22, 21, 22, 23, 21]
                rel material:binding = </root/_materials/Material_7_041>
                normal3f[] normals = [(1, 0, 0), (1, 0, 0), (1, 0, 0), (1, 0, 0), (1, 0, 0), (1, 0, 0), (-1, 0, 0), (-1, 0, 0), (-1, 0, 0), (-1, 0, 0), (-1, 0, 0), (-1, 0, 0), (0, 0, 1), (0, 0, 1), (0, 0, 1), (0, 0, 1), (0, 0, 1), (0, 0, 1), (0, 0, -1), (0, 0, -1), (0, 0, -1), (0, 0, -1), (0, 0, -1), (0, 0, -1), (0, -1, 0), (0, -1, 0), (0, -1, 0), (0, -1, 0), (0, -1, 0), (0, -1, 0), (0, 1, 0), (0, 1, 0), (0, 1, 0), (0, 1, 0), (0, 1, 0), (0, 1, 0)] (
                    interpolation = "faceVarying"
                )
                point3f[] points = [(0.08, -0.4, 0.9), (0.08, 0.4, 0.9), (0.08, -0.4, -0.9), (0.08, 0.4, -0.9), (-0.08, 0.4, 0.9), (-0.08, -0.4, 0.9), (-0.08, 0.4, -0.9), (-0.08, -0.4, -0.9), (-0.08, 0.4, 0.9), (0.08, 0.4, 0.9), (-0.08, -0.4, 0.9), (0.08, -0.4, 0.9), (-0.08, -0.4, -0.9), (0.08, -0.4, -0.9), (-0.08, 0.4, -0.9), (0.08, 0.4, -0.9), (-0.08, -0.4, 0.9), (0.08, -0.4, 0.9), (-0.08, -0.4, -0.9), (0.08, -0.4, -0.9), (0.08, 0.4, 0.9), (-0.08, 0.4, 0.9), (0.08, 0.4, -0.9), (-0.08, 0.4, -0.9)]
                texCoord2f[] primvars:st = [(0, 0), (0, 1), (1, 0), (0, 1), (1, 1), (1, 0), (0, 0), (0, 1), (1, 0), (0, 1), (1, 1), (1, 0), (0, 0), (0, 1), (1, 0), (0, 1), (1, 1), (1, 0), (0, 0), (0, 1), (1, 0), (0, 1), (1, 1), (1, 0), (0, 0), (0, 1), (1, 0), (0, 1), (1, 1), (1, 0), (0, 0), (0, 1), (1, 0), (0, 1), (1, 1), (1, 0)] (
                    interpolation = "faceVarying"
                )
                uniform token subdivisionScheme = "none"
                custom string userProperties:blender:data_name = "Mesh_7.041"
            }
        }

        def Xform "conveyor_idler_3_4"
        {
            custom string userProperties:blender:object_name = "conveyor_idler_3_4"
            float3 xformOp:rotateXYZ = (90.000015, -0, 0)
            float3 xformOp:scale = (1, 1.0000001, 1.0000001)
            double3 xformOp:translate = (1.3200000524520874, 0, 0.5299999713897705)
            uniform token[] xformOpOrder = ["xformOp:translate", "xformOp:rotateXYZ", "xformOp:scale"]

            def Mesh "Mesh_13_024" (
                active = true
                prepend apiSchemas = ["MaterialBindingAPI"]
            )
            {
                uniform bool doubleSided = 0
                float3[] extent = [(-0.045, -0.045, -0.45), (0.045, 0.045, 0.45)]
                int[] faceVertexCounts = [3, 3, 3, 3, 3, 3, 3, 3, 3, 3, 3, 3, 3, 3, 3, 3, 3, 3, 3, 3, 3, 3, 3, 3, 3, 3, 3, 3, 3, 3, 3, 3, 3, 3, 3, 3, 3, 3, 3, 3, 3, 3, 3, 3, 3, 3, 3, 3]
                int[] faceVertexIndices = [0, 13, 1, 13, 14, 1, 1, 14, 2, 14, 15, 2, 2, 15, 3, 15, 16, 3, 3, 16, 4, 16, 17, 4, 4, 17, 5, 17, 18, 5, 5, 18, 6, 18, 19, 6, 6, 19, 7, 19, 20, 7, 7, 20, 8, 20, 21, 8, 8, 21, 9, 21, 22, 9, 9, 22, 10, 22, 23, 10, 10, 23, 11, 23, 24, 11, 11, 24, 12, 24, 25, 12, 38, 39, 26, 39, 40, 27, 40, 41, 28, 41, 42, 29, 42, 43, 30, 43, 44, 31, 44, 45, 32, 45, 46, 33, 46, 47, 34, 47, 48, 35, 48, 49, 36, 49, 50, 37, 64, 63, 51, 65, 64, 52, 66, 65, 53, 67, 66, 54, 68, 67, 55, 69, 68, 56, 70, 69, 57, 71, 70, 58, 72, 71, 59, 73, 72, 60, 74, 73, 61, 75, 74, 62]
                rel material:binding = </root/_materials/Material_13_024>
                normal3f[] normals = [(0.000055909157, -1, -0.000012420108), (0.000055879354, -1, 0.000086826636), (0.49999863, -0.86602616, 0), (0.000055879354, -1, 0.000086826636), (0.5000013, -0.8660246, 0), (0.49999863, -0.86602616, 0), (0.49999863, -0.86602616, 0), (0.5000013, -0.8660246, 0), (0.8660247, -0.5000013, 0), (0.5000013, -0.8660246, 0), (0.86602616, -0.49999872, 0), (0.8660247, -0.5000013, 0), (0.8660247, -0.5000013, 0), (0.86602616, -0.49999872, 0), (1, -0.0000013945761, 0), (0.86602616, -0.49999872, 0), (1, 0.0000013945761, 0), (1, -0.0000013945761, 0), (1, -0.0000013945761, 0), (1, 0.0000013945761, 0), (0.86602616, 0.49999872, 0), (1, 0.0000013945761, 0), (0.8660247, 0.5000013, 0), (0.86602616, 0.49999872, 0), (0.86602616, 0.49999872, 0), (0.8660247, 0.5000013, 0), (0.5000013, 0.8660246, 0), (0.8660247, 0.5000013, 0), (0.49999863, 0.86602616, 0), (0.5000013, 0.8660246, 0), (0.5000013, 0.8660246, 0), (0.49999863, 0.86602616, 0), (0.0000015713534, 1, 0), (0.49999863, 0.86602616, 0), (-0.0000015713534, 1, 0), (0.0000015713534, 1, 0), (0.0000015713534, 1, 0), (-0.0000015713534, 1, 0), (-0.49999863, 0.86602616, 0), (-0.0000015713534, 1, 0), (-0.5000013, 0.8660246, 0), (-0.49999863, 0.86602616, 0), (-0.49999863, 0.86602616, 0), (-0.5000013, 0.8660246, 0), (-0.8660247, 0.5000013, 0), (-0.5000013, 0.8660246, 0), (-0.86602616, 0.49999872, 0), (-0.8660247, 0.5000013, 0), (-0.8660247, 0.5000013, 0), (-0.86602616, 0.49999872, 0), (-1, 0.0000013945761, 0), (-0.86602616, 0.49999872, 0), (-1, -0.0000013945761, 0), (-1, 0.0000013945761, 0), (-1, 0.0000013945761, 0), (-1, -0.0000013945761, 0), (-0.86602616, -0.49999872, 0), (-1, -0.0000013945761, 0), (-0.8660247, -0.5000013, 0), (-0.86602616, -0.49999872, 0), (-0.86602616, -0.49999872, 0), (-0.8660247, -0.5000013, 0), (-0.5000013, -0.8660246, 0), (-0.8660247, -0.5000013, 0), (-0.49999863, -0.86602616, 0), (-0.5000013, -0.8660246, 0), (-0.5000013, -0.8660246, 0), (-0.49999863, -0.86602616, 0), (-0.000055879354, -1, -0.000086826636), (-0.49999863, -0.86602616, 0), (-0.000055909157, -1, 0.000012420108), (-0.000055879354, -1, -0.000086826636), (0, 0, 1), (0, 0, 1), (0, 0, 1), (0, 0, 1), (0, 0, 1), (0, 0, 1), (-2.4492932e-15, 0, 1), (-2.4492932e-15, 0, 1), (-2.4492932e-15, 0, 1), (0, 0, 1), (0, 0, 1), (0, 0, 1), (0, 0, 1), (0, 0, 1), (0, 0, 1), (0, 0, 1), (0, 0, 1), (0, 0, 1), (0, 0, 1), (0, 0, 1), (0, 0, 1), (0, 0, 1), (0, 0, 1), (0, 0, 1), (7.347879e-15, 0, 1), (7.347879e-15, 0, 1), (7.347879e-15, 0, 1), (0, 0, 1), (0, 0, 1), (0, 0, 1), (0, 0, 1), (0, 0, 1), (0, 0, 1), (0, 0, 1), (0, 0, 1), (0, 0, 1), (0, 0, -1), (0, 0, -1), (0, 0, -1), (0, 0, -1), (0, 0, -1), (0, 0, -1), (0, 0, -1), (0, 0, -1), (0, 0, -1), (2.4492932e-15, 0, -1), (2.4492932e-15, 0, -1), (2.4492932e-15, 0, -1), (0, 0, -1), (0, 0, -1), (0, 0, -1), (0, 0, -1), (0, 0, -1), (0, 0, -1), (0, 0, -1), (0, 0, -1), (0, 0, -1), (0, 0, -1), (0, 0, -1), (0, 0, -1), (0, 0, -1), (0, 0, -1), (0, 0, -1), (-7.347879e-15, 0, -1), (-7.347879e-15, 0, -1), (-7.347879e-15, 0, -1), (0, 0, -1), (0, 0, -1), (0, 0, -1), (0, 0, -1), (0, 0, -1), (0, 0, -1)] (
                    interpolation = "faceVarying"
                )
                point3f[] points = [(0, -0.045, 0.45), (0.0225, -0.038971145, 0.45), (0.038971145, -0.0225, 0.45), (0.045, -2.7554553e-18, 0.45), (0.038971145, 0.0225, 0.45), (0.0225, 0.038971145, 0.45), (5.5109105e-18, 0.045, 0.45), (-0.0225, 0.038971145, 0.45), (-0.038971145, 0.0225, 0.45), (-0.045, 8.266366e-18, 0.45), (-0.038971145, -0.0225, 0.45), (-0.0225, -0.038971145, 0.45), (-1.1021821e-17, -0.045, 0.45), (0, -0.045, -0.45), (0.0225, -0.038971145, -0.45), (0.038971145, -0.0225, -0.45), (0.045, -2.7554553e-18, -0.45), (0.038971145, 0.0225, -0.45), (0.0225, 0.038971145, -0.45), (5.5109105e-18, 0.045, -0.45), (-0.0225, 0.038971145, -0.45), (-0.038971145, 0.0225, -0.45), (-0.045, 8.266366e-18, -0.45), (-0.038971145, -0.0225, -0.45), (-0.0225, -0.038971145, -0.45), (-1.1021821e-17, -0.045, -0.45), (0, -0, 0.45), (0, -0, 0.45), (0, -0, 0.45), (0, -0, 0.45), (0, -0, 0.45), (0, -0, 0.45), (0, -0, 0.45), (0, -0, 0.45), (0, -0, 0.45), (0, -0, 0.45), (0, -0, 0.45), (0, -0, 0.45), (0, -0.045, 0.45), (0.0225, -0.038971145, 0.45), (0.038971145, -0.0225, 0.45), (0.045, -2.7554553e-18, 0.45), (0.038971145, 0.0225, 0.45), (0.0225, 0.038971145, 0.45), (5.5109105e-18, 0.045, 0.45), (-0.0225, 0.038971145, 0.45), (-0.038971145, 0.0225, 0.45), (-0.045, 8.266366e-18, 0.45), (-0.038971145, -0.0225, 0.45), (-0.0225, -0.038971145, 0.45), (-1.1021821e-17, -0.045, 0.45), (0, -0, -0.45), (0, -0, -0.45), (0, -0, -0.45), (0, -0, -0.45), (0, -0, -0.45), (0, -0, -0.45), (0, -0, -0.45), (0, -0, -0.45), (0, -0, -0.45), (0, -0, -0.45), (0, -0, -0.45), (0, -0, -0.45), (0, -0.045, -0.45), (0.0225, -0.038971145, -0.45), (0.038971145, -0.0225, -0.45), (0.045, -2.7554553e-18, -0.45), (0.038971145, 0.0225, -0.45), (0.0225, 0.038971145, -0.45), (5.5109105e-18, 0.045, -0.45), (-0.0225, 0.038971145, -0.45), (-0.038971145, 0.0225, -0.45), (-0.045, 8.266366e-18, -0.45), (-0.038971145, -0.0225, -0.45), (-0.0225, -0.038971145, -0.45), (-1.1021821e-17, -0.045, -0.45)]
                texCoord2f[] primvars:st = [(0, 0), (0, 1), (0.083333336, 0), (0, 1), (0.083333336, 1), (0.083333336, 0), (0.083333336, 0), (0.083333336, 1), (0.16666667, 0), (0.083333336, 1), (0.16666667, 1), (0.16666667, 0), (0.16666667, 0), (0.16666667, 1), (0.25, 0), (0.16666667, 1), (0.25, 1), (0.25, 0), (0.25, 0), (0.25, 1), (0.33333334, 0), (0.25, 1), (0.33333334, 1), (0.33333334, 0), (0.33333334, 0), (0.33333334, 1), (0.41666666, 0), (0.33333334, 1), (0.41666666, 1), (0.41666666, 0), (0.41666666, 0), (0.41666666, 1), (0.5, 0), (0.41666666, 1), (0.5, 1), (0.5, 0), (0.5, 0), (0.5, 1), (0.5833333, 0), (0.5, 1), (0.5833333, 1), (0.5833333, 0), (0.5833333, 0), (0.5833333, 1), (0.6666667, 0), (0.5833333, 1), (0.6666667, 1), (0.6666667, 0), (0.6666667, 0), (0.6666667, 1), (0.75, 0), (0.6666667, 1), (0.75, 1), (0.75, 0), (0.75, 0), (0.75, 1), (0.8333333, 0), (0.75, 1), (0.8333333, 1), (0.8333333, 0), (0.8333333, 0), (0.8333333, 1), (0.9166667, 0), (0.8333333, 1), (0.9166667, 1), (0.9166667, 0), (0.9166667, 0), (0.9166667, 1), (1, 0), (0.9166667, 1), (1, 1), (1, 0), (1, 0.5), (0.9330127, 0.25), (0.5, 0.5), (0.9330127, 0.25), (0.75, 0.066987276), (0.5, 0.5), (0.75, 0.066987276), (0.5, 0), (0.5, 0.5), (0.5, 0), (0.25, 0.066987276), (0.5, 0.5), (0.25, 0.066987276), (0.0669873, 0.25), (0.5, 0.5), (0.0669873, 0.25), (0, 0.5), (0.5, 0.5), (0, 0.5), (0.0669873, 0.75), (0.5, 0.5), (0.0669873, 0.75), (0.25, 0.9330127), (0.5, 0.5), (0.25, 0.9330127), (0.5, 1), (0.5, 0.5), (0.5, 1), (0.75, 0.9330127), (0.5, 0.5), (0.75, 0.9330127), (0.9330127, 0.75), (0.5, 0.5), (0.9330127, 0.75), (1, 0.5), (0.5, 0.5), (0.9330127, 0.75), (1, 0.5), (0.5, 0.5), (0.75, 0.9330127), (0.9330127, 0.75), (0.5, 0.5), (0.5, 1), (0.75, 0.9330127), (0.5, 0.5), (0.25, 0.9330127), (0.5, 1), (0.5, 0.5), (0.0669873, 0.75), (0.25, 0.9330127), (0.5, 0.5), (0, 0.5), (0.0669873, 0.75), (0.5, 0.5), (0.0669873, 0.25), (0, 0.5), (0.5, 0.5), (0.25, 0.066987276), (0.0669873, 0.25), (0.5, 0.5), (0.5, 0), (0.25, 0.066987276), (0.5, 0.5), (0.75, 0.066987276), (0.5, 0), (0.5, 0.5), (0.9330127, 0.25), (0.75, 0.066987276), (0.5, 0.5), (1, 0.5), (0.9330127, 0.25), (0.5, 0.5)] (
                    interpolation = "faceVarying"
                )
                uniform token subdivisionScheme = "none"
                custom string userProperties:blender:data_name = "Mesh_13.024"
            }
        }

        def Xform "support_base"
        {
            custom string userProperties:blender:object_name = "support_base"
            float3 xformOp:rotateXYZ = (0, -0, 0)
            float3 xformOp:scale = (1, 1, 1)
            double3 xformOp:translate = (0, 0, 0.10999999940395355)
            uniform token[] xformOpOrder = ["xformOp:translate", "xformOp:rotateXYZ", "xformOp:scale"]

            def Mesh "Mesh_0_043" (
                active = true
                prepend apiSchemas = ["MaterialBindingAPI"]
            )
            {
                uniform bool doubleSided = 0
                float3[] extent = [(-1.44, -0.8, -0.11), (1.44, 0.8, 0.11)]
                int[] faceVertexCounts = [3, 3, 3, 3, 3, 3, 3, 3, 3, 3, 3, 3]
                int[] faceVertexIndices = [0, 2, 1, 2, 3, 1, 4, 6, 5, 6, 7, 5, 8, 10, 9, 10, 11, 9, 12, 14, 13, 14, 15, 13, 16, 18, 17, 18, 19, 17, 20, 22, 21, 22, 23, 21]
                rel material:binding = </root/_materials/Material_0_043>
                normal3f[] normals = [(0.99999994, 0, 0), (0.99999994, 0, 0), (0.99999994, 0, 0), (0.99999994, 0, 0), (0.99999994, 0, 0), (0.99999994, 0, 0), (-0.99999994, 0, 0), (-0.99999994, 0, 0), (-0.99999994, 0, 0), (-0.99999994, 0, 0), (-0.99999994, 0, 0), (-0.99999994, 0, 0), (0, 0, 1), (0, 0, 1), (0, 0, 1), (0, 0, 1), (0, 0, 1), (0, 0, 1), (0, 0, -1), (0, 0, -1), (0, 0, -1), (0, 0, -1), (0, 0, -1), (0, 0, -1), (0, -1, 0), (0, -1, 0), (0, -1, 0), (0, -1, 0), (0, -1, 0), (0, -1, 0), (0, 1, 0), (0, 1, 0), (0, 1, 0), (0, 1, 0), (0, 1, 0), (0, 1, 0)] (
                    interpolation = "faceVarying"
                )
                point3f[] points = [(1.44, -0.8, 0.11), (1.44, 0.8, 0.11), (1.44, -0.8, -0.11), (1.44, 0.8, -0.11), (-1.44, 0.8, 0.11), (-1.44, -0.8, 0.11), (-1.44, 0.8, -0.11), (-1.44, -0.8, -0.11), (-1.44, 0.8, 0.11), (1.44, 0.8, 0.11), (-1.44, -0.8, 0.11), (1.44, -0.8, 0.11), (-1.44, -0.8, -0.11), (1.44, -0.8, -0.11), (-1.44, 0.8, -0.11), (1.44, 0.8, -0.11), (-1.44, -0.8, 0.11), (1.44, -0.8, 0.11), (-1.44, -0.8, -0.11), (1.44, -0.8, -0.11), (1.44, 0.8, 0.11), (-1.44, 0.8, 0.11), (1.44, 0.8, -0.11), (-1.44, 0.8, -0.11)]
                texCoord2f[] primvars:st = [(0, 0), (0, 1), (1, 0), (0, 1), (1, 1), (1, 0), (0, 0), (0, 1), (1, 0), (0, 1), (1, 1), (1, 0), (0, 0), (0, 1), (1, 0), (0, 1), (1, 1), (1, 0), (0, 0), (0, 1), (1, 0), (0, 1), (1, 1), (1, 0), (0, 0), (0, 1), (1, 0), (0, 1), (1, 1), (1, 0), (0, 0), (0, 1), (1, 0), (0, 1), (1, 1), (1, 0)] (
                    interpolation = "faceVarying"
                )
                uniform token subdivisionScheme = "none"
                custom string userProperties:blender:data_name = "Mesh_0.043"
            }
        }

        def Xform "tray_end_0__0_28"
        {
            custom string userProperties:blender:object_name = "tray_end_0_-0.28"
            float3 xformOp:rotateXYZ = (0, -0, 0)
            float3 xformOp:scale = (1, 1, 1)
            double3 xformOp:translate = (-1.3600000143051147, 0, 0.5)
            uniform token[] xformOpOrder = ["xformOp:translate", "xformOp:rotateXYZ", "xformOp:scale"]

            def Mesh "Mesh_4_043" (
                active = true
                prepend apiSchemas = ["MaterialBindingAPI"]
            )
            {
                uniform bool doubleSided = 0
                float3[] extent = [(-0.02, -0.475, -0.16), (0.02, 0.475, 0.16)]
                int[] faceVertexCounts = [3, 3, 3, 3, 3, 3, 3, 3, 3, 3, 3, 3]
                int[] faceVertexIndices = [0, 2, 1, 2, 3, 1, 4, 6, 5, 6, 7, 5, 8, 10, 9, 10, 11, 9, 12, 14, 13, 14, 15, 13, 16, 18, 17, 18, 19, 17, 20, 22, 21, 22, 23, 21]
                rel material:binding = </root/_materials/Material_4_043>
                normal3f[] normals = [(1, 0, 0), (1, 0, 0), (1, 0, 0), (1, 0, 0), (1, 0, 0), (1, 0, 0), (-1, 0, 0), (-1, 0, 0), (-1, 0, 0), (-1, 0, 0), (-1, 0, 0), (-1, 0, 0), (0, 0, 1), (0, 0, 1), (0, 0, 1), (0, 0, 1), (0, 0, 1), (0, 0, 1), (0, 0, -1), (0, 0, -1), (0, 0, -1), (0, 0, -1), (0, 0, -1), (0, 0, -1), (0, -1, 0), (0, -1, 0), (0, -1, 0), (0, -1, 0), (0, -1, 0), (0, -1, 0), (0, 1, 0), (0, 1, 0), (0, 1, 0), (0, 1, 0), (0, 1, 0), (0, 1, 0)] (
                    interpolation = "faceVarying"
                )
                point3f[] points = [(0.02, -0.475, 0.16), (0.02, 0.475, 0.16), (0.02, -0.475, -0.16), (0.02, 0.475, -0.16), (-0.02, 0.475, 0.16), (-0.02, -0.475, 0.16), (-0.02, 0.475, -0.16), (-0.02, -0.475, -0.16), (-0.02, 0.475, 0.16), (0.02, 0.475, 0.16), (-0.02, -0.475, 0.16), (0.02, -0.475, 0.16), (-0.02, -0.475, -0.16), (0.02, -0.475, -0.16), (-0.02, 0.475, -0.16), (0.02, 0.475, -0.16), (-0.02, -0.475, 0.16), (0.02, -0.475, 0.16), (-0.02, -0.475, -0.16), (0.02, -0.475, -0.16), (0.02, 0.475, 0.16), (-0.02, 0.475, 0.16), (0.02, 0.475, -0.16), (-0.02, 0.475, -0.16)]
                texCoord2f[] primvars:st = [(0, 0), (0, 1), (1, 0), (0, 1), (1, 1), (1, 0), (0, 0), (0, 1), (1, 0), (0, 1), (1, 1), (1, 0), (0, 0), (0, 1), (1, 0), (0, 1), (1, 1), (1, 0), (0, 0), (0, 1), (1, 0), (0, 1), (1, 1), (1, 0), (0, 0), (0, 1), (1, 0), (0, 1), (1, 1), (1, 0), (0, 0), (0, 1), (1, 0), (0, 1), (1, 1), (1, 0)] (
                    interpolation = "faceVarying"
                )
                uniform token subdivisionScheme = "none"
                custom string userProperties:blender:data_name = "Mesh_4.043"
            }
        }

        def Xform "conveyor_idler_3_3"
        {
            custom string userProperties:blender:object_name = "conveyor_idler_3_3"
            float3 xformOp:rotateXYZ = (90.000015, -0, 0)
            float3 xformOp:scale = (1, 1.0000001, 1.0000001)
            double3 xformOp:translate = (1.159999966621399, 0, 0.5299999713897705)
            uniform token[] xformOpOrder = ["xformOp:translate", "xformOp:rotateXYZ", "xformOp:scale"]

            def Mesh "Mesh_12_028" (
                active = true
                prepend apiSchemas = ["MaterialBindingAPI"]
            )
            {
                uniform bool doubleSided = 0
                float3[] extent = [(-0.045, -0.045, -0.45), (0.045, 0.045, 0.45)]
                int[] faceVertexCounts = [3, 3, 3, 3, 3, 3, 3, 3, 3, 3, 3, 3, 3, 3, 3, 3, 3, 3, 3, 3, 3, 3, 3, 3, 3, 3, 3, 3, 3, 3, 3, 3, 3, 3, 3, 3, 3, 3, 3, 3, 3, 3, 3, 3, 3, 3, 3, 3]
                int[] faceVertexIndices = [0, 13, 1, 13, 14, 1, 1, 14, 2, 14, 15, 2, 2, 15, 3, 15, 16, 3, 3, 16, 4, 16, 17, 4, 4, 17, 5, 17, 18, 5, 5, 18, 6, 18, 19, 6, 6, 19, 7, 19, 20, 7, 7, 20, 8, 20, 21, 8, 8, 21, 9, 21, 22, 9, 9, 22, 10, 22, 23, 10, 10, 23, 11, 23, 24, 11, 11, 24, 12, 24, 25, 12, 38, 39, 26, 39, 40, 27, 40, 41, 28, 41, 42, 29, 42, 43, 30, 43, 44, 31, 44, 45, 32, 45, 46, 33, 46, 47, 34, 47, 48, 35, 48, 49, 36, 49, 50, 37, 64, 63, 51, 65, 64, 52, 66, 65, 53, 67, 66, 54, 68, 67, 55, 69, 68, 56, 70, 69, 57, 71, 70, 58, 72, 71, 59, 73, 72, 60, 74, 73, 61, 75, 74, 62]
                rel material:binding = </root/_materials/Material_12_028>
                normal3f[] normals = [(0.000055909157, -1, -0.000012420108), (0.000055879354, -1, 0.000086826636), (0.49999863, -0.86602616, 0), (0.000055879354, -1, 0.000086826636), (0.5000013, -0.8660246, 0), (0.49999863, -0.86602616, 0), (0.49999863, -0.86602616, 0), (0.5000013, -0.8660246, 0), (0.8660247, -0.5000013, 0), (0.5000013, -0.8660246, 0), (0.86602616, -0.49999872, 0), (0.8660247, -0.5000013, 0), (0.8660247, -0.5000013, 0), (0.86602616, -0.49999872, 0), (1, -0.0000013945761, 0), (0.86602616, -0.49999872, 0), (1, 0.0000013945761, 0), (1, -0.0000013945761, 0), (1, -0.0000013945761, 0), (1, 0.0000013945761, 0), (0.86602616, 0.49999872, 0), (1, 0.0000013945761, 0), (0.8660247, 0.5000013, 0), (0.86602616, 0.49999872, 0), (0.86602616, 0.49999872, 0), (0.8660247, 0.5000013, 0), (0.5000013, 0.8660246, 0), (0.8660247, 0.5000013, 0), (0.49999863, 0.86602616, 0), (0.5000013, 0.8660246, 0), (0.5000013, 0.8660246, 0), (0.49999863, 0.86602616, 0), (0.0000015713534, 1, 0), (0.49999863, 0.86602616, 0), (-0.0000015713534, 1, 0), (0.0000015713534, 1, 0), (0.0000015713534, 1, 0), (-0.0000015713534, 1, 0), (-0.49999863, 0.86602616, 0), (-0.0000015713534, 1, 0), (-0.5000013, 0.8660246, 0), (-0.49999863, 0.86602616, 0), (-0.49999863, 0.86602616, 0), (-0.5000013, 0.8660246, 0), (-0.8660247, 0.5000013, 0), (-0.5000013, 0.8660246, 0), (-0.86602616, 0.49999872, 0), (-0.8660247, 0.5000013, 0), (-0.8660247, 0.5000013, 0), (-0.86602616, 0.49999872, 0), (-1, 0.0000013945761, 0), (-0.86602616, 0.49999872, 0), (-1, -0.0000013945761, 0), (-1, 0.0000013945761, 0), (-1, 0.0000013945761, 0), (-1, -0.0000013945761, 0), (-0.86602616, -0.49999872, 0), (-1, -0.0000013945761, 0), (-0.8660247, -0.5000013, 0), (-0.86602616, -0.49999872, 0), (-0.86602616, -0.49999872, 0), (-0.8660247, -0.5000013, 0), (-0.5000013, -0.8660246, 0), (-0.8660247, -0.5000013, 0), (-0.49999863, -0.86602616, 0), (-0.5000013, -0.8660246, 0), (-0.5000013, -0.8660246, 0), (-0.49999863, -0.86602616, 0), (-0.000055879354, -1, -0.000086826636), (-0.49999863, -0.86602616, 0), (-0.000055909157, -1, 0.000012420108), (-0.000055879354, -1, -0.000086826636), (0, 0, 1), (0, 0, 1), (0, 0, 1), (0, 0, 1), (0, 0, 1), (0, 0, 1), (-2.4492932e-15, 0, 1), (-2.4492932e-15, 0, 1), (-2.4492932e-15, 0, 1), (0, 0, 1), (0, 0, 1), (0, 0, 1), (0, 0, 1), (0, 0, 1), (0, 0, 1), (0, 0, 1), (0, 0, 1), (0, 0, 1), (0, 0, 1), (0, 0, 1), (0, 0, 1), (0, 0, 1), (0, 0, 1), (0, 0, 1), (7.347879e-15, 0, 1), (7.347879e-15, 0, 1), (7.347879e-15, 0, 1), (0, 0, 1), (0, 0, 1), (0, 0, 1), (0, 0, 1), (0, 0, 1), (0, 0, 1), (0, 0, 1), (0, 0, 1), (0, 0, 1), (0, 0, -1), (0, 0, -1), (0, 0, -1), (0, 0, -1), (0, 0, -1), (0, 0, -1), (0, 0, -1), (0, 0, -1), (0, 0, -1), (2.4492932e-15, 0, -1), (2.4492932e-15, 0, -1), (2.4492932e-15, 0, -1), (0, 0, -1), (0, 0, -1), (0, 0, -1), (0, 0, -1), (0, 0, -1), (0, 0, -1), (0, 0, -1), (0, 0, -1), (0, 0, -1), (0, 0, -1), (0, 0, -1), (0, 0, -1), (0, 0, -1), (0, 0, -1), (0, 0, -1), (-7.347879e-15, 0, -1), (-7.347879e-15, 0, -1), (-7.347879e-15, 0, -1), (0, 0, -1), (0, 0, -1), (0, 0, -1), (0, 0, -1), (0, 0, -1), (0, 0, -1)] (
                    interpolation = "faceVarying"
                )
                point3f[] points = [(0, -0.045, 0.45), (0.0225, -0.038971145, 0.45), (0.038971145, -0.0225, 0.45), (0.045, -2.7554553e-18, 0.45), (0.038971145, 0.0225, 0.45), (0.0225, 0.038971145, 0.45), (5.5109105e-18, 0.045, 0.45), (-0.0225, 0.038971145, 0.45), (-0.038971145, 0.0225, 0.45), (-0.045, 8.266366e-18, 0.45), (-0.038971145, -0.0225, 0.45), (-0.0225, -0.038971145, 0.45), (-1.1021821e-17, -0.045, 0.45), (0, -0.045, -0.45), (0.0225, -0.038971145, -0.45), (0.038971145, -0.0225, -0.45), (0.045, -2.7554553e-18, -0.45), (0.038971145, 0.0225, -0.45), (0.0225, 0.038971145, -0.45), (5.5109105e-18, 0.045, -0.45), (-0.0225, 0.038971145, -0.45), (-0.038971145, 0.0225, -0.45), (-0.045, 8.266366e-18, -0.45), (-0.038971145, -0.0225, -0.45), (-0.0225, -0.038971145, -0.45), (-1.1021821e-17, -0.045, -0.45), (0, -0, 0.45), (0, -0, 0.45), (0, -0, 0.45), (0, -0, 0.45), (0, -0, 0.45), (0, -0, 0.45), (0, -0, 0.45), (0, -0, 0.45), (0, -0, 0.45), (0, -0, 0.45), (0, -0, 0.45), (0, -0, 0.45), (0, -0.045, 0.45), (0.0225, -0.038971145, 0.45), (0.038971145, -0.0225, 0.45), (0.045, -2.7554553e-18, 0.45), (0.038971145, 0.0225, 0.45), (0.0225, 0.038971145, 0.45), (5.5109105e-18, 0.045, 0.45), (-0.0225, 0.038971145, 0.45), (-0.038971145, 0.0225, 0.45), (-0.045, 8.266366e-18, 0.45), (-0.038971145, -0.0225, 0.45), (-0.0225, -0.038971145, 0.45), (-1.1021821e-17, -0.045, 0.45), (0, -0, -0.45), (0, -0, -0.45), (0, -0, -0.45), (0, -0, -0.45), (0, -0, -0.45), (0, -0, -0.45), (0, -0, -0.45), (0, -0, -0.45), (0, -0, -0.45), (0, -0, -0.45), (0, -0, -0.45), (0, -0, -0.45), (0, -0.045, -0.45), (0.0225, -0.038971145, -0.45), (0.038971145, -0.0225, -0.45), (0.045, -2.7554553e-18, -0.45), (0.038971145, 0.0225, -0.45), (0.0225, 0.038971145, -0.45), (5.5109105e-18, 0.045, -0.45), (-0.0225, 0.038971145, -0.45), (-0.038971145, 0.0225, -0.45), (-0.045, 8.266366e-18, -0.45), (-0.038971145, -0.0225, -0.45), (-0.0225, -0.038971145, -0.45), (-1.1021821e-17, -0.045, -0.45)]
                texCoord2f[] primvars:st = [(0, 0), (0, 1), (0.083333336, 0), (0, 1), (0.083333336, 1), (0.083333336, 0), (0.083333336, 0), (0.083333336, 1), (0.16666667, 0), (0.083333336, 1), (0.16666667, 1), (0.16666667, 0), (0.16666667, 0), (0.16666667, 1), (0.25, 0), (0.16666667, 1), (0.25, 1), (0.25, 0), (0.25, 0), (0.25, 1), (0.33333334, 0), (0.25, 1), (0.33333334, 1), (0.33333334, 0), (0.33333334, 0), (0.33333334, 1), (0.41666666, 0), (0.33333334, 1), (0.41666666, 1), (0.41666666, 0), (0.41666666, 0), (0.41666666, 1), (0.5, 0), (0.41666666, 1), (0.5, 1), (0.5, 0), (0.5, 0), (0.5, 1), (0.5833333, 0), (0.5, 1), (0.5833333, 1), (0.5833333, 0), (0.5833333, 0), (0.5833333, 1), (0.6666667, 0), (0.5833333, 1), (0.6666667, 1), (0.6666667, 0), (0.6666667, 0), (0.6666667, 1), (0.75, 0), (0.6666667, 1), (0.75, 1), (0.75, 0), (0.75, 0), (0.75, 1), (0.8333333, 0), (0.75, 1), (0.8333333, 1), (0.8333333, 0), (0.8333333, 0), (0.8333333, 1), (0.9166667, 0), (0.8333333, 1), (0.9166667, 1), (0.9166667, 0), (0.9166667, 0), (0.9166667, 1), (1, 0), (0.9166667, 1), (1, 1), (1, 0), (1, 0.5), (0.9330127, 0.25), (0.5, 0.5), (0.9330127, 0.25), (0.75, 0.066987276), (0.5, 0.5), (0.75, 0.066987276), (0.5, 0), (0.5, 0.5), (0.5, 0), (0.25, 0.066987276), (0.5, 0.5), (0.25, 0.066987276), (0.0669873, 0.25), (0.5, 0.5), (0.0669873, 0.25), (0, 0.5), (0.5, 0.5), (0, 0.5), (0.0669873, 0.75), (0.5, 0.5), (0.0669873, 0.75), (0.25, 0.9330127), (0.5, 0.5), (0.25, 0.9330127), (0.5, 1), (0.5, 0.5), (0.5, 1), (0.75, 0.9330127), (0.5, 0.5), (0.75, 0.9330127), (0.9330127, 0.75), (0.5, 0.5), (0.9330127, 0.75), (1, 0.5), (0.5, 0.5), (0.9330127, 0.75), (1, 0.5), (0.5, 0.5), (0.75, 0.9330127), (0.9330127, 0.75), (0.5, 0.5), (0.5, 1), (0.75, 0.9330127), (0.5, 0.5), (0.25, 0.9330127), (0.5, 1), (0.5, 0.5), (0.0669873, 0.75), (0.25, 0.9330127), (0.5, 0.5), (0, 0.5), (0.0669873, 0.75), (0.5, 0.5), (0.0669873, 0.25), (0, 0.5), (0.5, 0.5), (0.25, 0.066987276), (0.0669873, 0.25), (0.5, 0.5), (0.5, 0), (0.25, 0.066987276), (0.5, 0.5), (0.75, 0.066987276), (0.5, 0), (0.5, 0.5), (0.9330127, 0.25), (0.75, 0.066987276), (0.5, 0.5), (1, 0.5), (0.9330127, 0.25), (0.5, 0.5)] (
                    interpolation = "faceVarying"
                )
                uniform token subdivisionScheme = "none"
                custom string userProperties:blender:data_name = "Mesh_12.028"
            }
        }

        def Xform "tray_rim_0__0_48"
        {
            custom string userProperties:blender:object_name = "tray_rim_0_-0.48"
            float3 xformOp:rotateXYZ = (0, -0, 0)
            float3 xformOp:scale = (1, 1, 1)
            double3 xformOp:translate = (-1.0800000429153442, 0.47999998927116394, 0.5)
            uniform token[] xformOpOrder = ["xformOp:translate", "xformOp:rotateXYZ", "xformOp:scale"]

            def Mesh "Mesh_2_043" (
                active = true
                prepend apiSchemas = ["MaterialBindingAPI"]
            )
            {
                uniform bool doubleSided = 0
                float3[] extent = [(-0.3, -0.02, -0.16), (0.3, 0.02, 0.16)]
                int[] faceVertexCounts = [3, 3, 3, 3, 3, 3, 3, 3, 3, 3, 3, 3]
                int[] faceVertexIndices = [0, 2, 1, 2, 3, 1, 4, 6, 5, 6, 7, 5, 8, 10, 9, 10, 11, 9, 12, 14, 13, 14, 15, 13, 16, 18, 17, 18, 19, 17, 20, 22, 21, 22, 23, 21]
                rel material:binding = </root/_materials/Material_2_043>
                normal3f[] normals = [(1, 0, 0), (1, 0, 0), (1, 0, 0), (1, 0, 0), (1, 0, 0), (1, 0, 0), (-1, 0, 0), (-1, 0, 0), (-1, 0, 0), (-1, 0, 0), (-1, 0, 0), (-1, 0, 0), (0, 0, 1), (0, 0, 1), (0, 0, 1), (0, 0, 1), (0, 0, 1), (0, 0, 1), (0, 0, -1), (0, 0, -1), (0, 0, -1), (0, 0, -1), (0, 0, -1), (0, 0, -1), (0, -1, 0), (0, -1, 0), (0, -1, 0), (0, -1, 0), (0, -1, 0), (0, -1, 0), (0, 1, 0), (0, 1, 0), (0, 1, 0), (0, 1, 0), (0, 1, 0), (0, 1, 0)] (
                    interpolation = "faceVarying"
                )
                point3f[] points = [(0.3, -0.02, 0.16), (0.3, 0.02, 0.16), (0.3, -0.02, -0.16), (0.3, 0.02, -0.16), (-0.3, 0.02, 0.16), (-0.3, -0.02, 0.16), (-0.3, 0.02, -0.16), (-0.3, -0.02, -0.16), (-0.3, 0.02, 0.16), (0.3, 0.02, 0.16), (-0.3, -0.02, 0.16), (0.3, -0.02, 0.16), (-0.3, -0.02, -0.16), (0.3, -0.02, -0.16), (-0.3, 0.02, -0.16), (0.3, 0.02, -0.16), (-0.3, -0.02, 0.16), (0.3, -0.02, 0.16), (-0.3, -0.02, -0.16), (0.3, -0.02, -0.16), (0.3, 0.02, 0.16), (-0.3, 0.02, 0.16), (0.3, 0.02, -0.16), (-0.3, 0.02, -0.16)]
                texCoord2f[] primvars:st = [(0, 0), (0, 1), (1, 0), (0, 1), (1, 1), (1, 0), (0, 0), (0, 1), (1, 0), (0, 1), (1, 1), (1, 0), (0, 0), (0, 1), (1, 0), (0, 1), (1, 1), (1, 0), (0, 0), (0, 1), (1, 0), (0, 1), (1, 1), (1, 0), (0, 0), (0, 1), (1, 0), (0, 1), (1, 1), (1, 0), (0, 0), (0, 1), (1, 0), (0, 1), (1, 1), (1, 0)] (
                    interpolation = "faceVarying"
                )
                uniform token subdivisionScheme = "none"
                custom string userProperties:blender:data_name = "Mesh_2.043"
            }
        }

        def Xform "conveyor_idler_3_0"
        {
            custom string userProperties:blender:object_name = "conveyor_idler_3_0"
            float3 xformOp:rotateXYZ = (90.000015, -0, 0)
            float3 xformOp:scale = (1, 1.0000001, 1.0000001)
            double3 xformOp:translate = (0.6800000071525574, 0, 0.5299999713897705)
            uniform token[] xformOpOrder = ["xformOp:translate", "xformOp:rotateXYZ", "xformOp:scale"]

            def Mesh "Mesh_9_036" (
                active = true
                prepend apiSchemas = ["MaterialBindingAPI"]
            )
            {
                uniform bool doubleSided = 0
                float3[] extent = [(-0.045, -0.045, -0.45), (0.045, 0.045, 0.45)]
                int[] faceVertexCounts = [3, 3, 3, 3, 3, 3, 3, 3, 3, 3, 3, 3, 3, 3, 3, 3, 3, 3, 3, 3, 3, 3, 3, 3, 3, 3, 3, 3, 3, 3, 3, 3, 3, 3, 3, 3, 3, 3, 3, 3, 3, 3, 3, 3, 3, 3, 3, 3]
                int[] faceVertexIndices = [0, 13, 1, 13, 14, 1, 1, 14, 2, 14, 15, 2, 2, 15, 3, 15, 16, 3, 3, 16, 4, 16, 17, 4, 4, 17, 5, 17, 18, 5, 5, 18, 6, 18, 19, 6, 6, 19, 7, 19, 20, 7, 7, 20, 8, 20, 21, 8, 8, 21, 9, 21, 22, 9, 9, 22, 10, 22, 23, 10, 10, 23, 11, 23, 24, 11, 11, 24, 12, 24, 25, 12, 38, 39, 26, 39, 40, 27, 40, 41, 28, 41, 42, 29, 42, 43, 30, 43, 44, 31, 44, 45, 32, 45, 46, 33, 46, 47, 34, 47, 48, 35, 48, 49, 36, 49, 50, 37, 64, 63, 51, 65, 64, 52, 66, 65, 53, 67, 66, 54, 68, 67, 55, 69, 68, 56, 70, 69, 57, 71, 70, 58, 72, 71, 59, 73, 72, 60, 74, 73, 61, 75, 74, 62]
                rel material:binding = </root/_materials/Material_9_036>
                normal3f[] normals = [(0.000055909157, -1, -0.000012420108), (0.000055879354, -1, 0.000086826636), (0.49999863, -0.86602616, 0), (0.000055879354, -1, 0.000086826636), (0.5000013, -0.8660246, 0), (0.49999863, -0.86602616, 0), (0.49999863, -0.86602616, 0), (0.5000013, -0.8660246, 0), (0.8660247, -0.5000013, 0), (0.5000013, -0.8660246, 0), (0.86602616, -0.49999872, 0), (0.8660247, -0.5000013, 0), (0.8660247, -0.5000013, 0), (0.86602616, -0.49999872, 0), (1, -0.0000013945761, 0), (0.86602616, -0.49999872, 0), (1, 0.0000013945761, 0), (1, -0.0000013945761, 0), (1, -0.0000013945761, 0), (1, 0.0000013945761, 0), (0.86602616, 0.49999872, 0), (1, 0.0000013945761, 0), (0.8660247, 0.5000013, 0), (0.86602616, 0.49999872, 0), (0.86602616, 0.49999872, 0), (0.8660247, 0.5000013, 0), (0.5000013, 0.8660246, 0), (0.8660247, 0.5000013, 0), (0.49999863, 0.86602616, 0), (0.5000013, 0.8660246, 0), (0.5000013, 0.8660246, 0), (0.49999863, 0.86602616, 0), (0.0000015713534, 1, 0), (0.49999863, 0.86602616, 0), (-0.0000015713534, 1, 0), (0.0000015713534, 1, 0), (0.0000015713534, 1, 0), (-0.0000015713534, 1, 0), (-0.49999863, 0.86602616, 0), (-0.0000015713534, 1, 0), (-0.5000013, 0.8660246, 0), (-0.49999863, 0.86602616, 0), (-0.49999863, 0.86602616, 0), (-0.5000013, 0.8660246, 0), (-0.8660247, 0.5000013, 0), (-0.5000013, 0.8660246, 0), (-0.86602616, 0.49999872, 0), (-0.8660247, 0.5000013, 0), (-0.8660247, 0.5000013, 0), (-0.86602616, 0.49999872, 0), (-1, 0.0000013945761, 0), (-0.86602616, 0.49999872, 0), (-1, -0.0000013945761, 0), (-1, 0.0000013945761, 0), (-1, 0.0000013945761, 0), (-1, -0.0000013945761, 0), (-0.86602616, -0.49999872, 0), (-1, -0.0000013945761, 0), (-0.8660247, -0.5000013, 0), (-0.86602616, -0.49999872, 0), (-0.86602616, -0.49999872, 0), (-0.8660247, -0.5000013, 0), (-0.5000013, -0.8660246, 0), (-0.8660247, -0.5000013, 0), (-0.49999863, -0.86602616, 0), (-0.5000013, -0.8660246, 0), (-0.5000013, -0.8660246, 0), (-0.49999863, -0.86602616, 0), (-0.000055879354, -1, -0.000086826636), (-0.49999863, -0.86602616, 0), (-0.000055909157, -1, 0.000012420108), (-0.000055879354, -1, -0.000086826636), (0, 0, 1), (0, 0, 1), (0, 0, 1), (0, 0, 1), (0, 0, 1), (0, 0, 1), (-2.4492932e-15, 0, 1), (-2.4492932e-15, 0, 1), (-2.4492932e-15, 0, 1), (0, 0, 1), (0, 0, 1), (0, 0, 1), (0, 0, 1), (0, 0, 1), (0, 0, 1), (0, 0, 1), (0, 0, 1), (0, 0, 1), (0, 0, 1), (0, 0, 1), (0, 0, 1), (0, 0, 1), (0, 0, 1), (0, 0, 1), (7.347879e-15, 0, 1), (7.347879e-15, 0, 1), (7.347879e-15, 0, 1), (0, 0, 1), (0, 0, 1), (0, 0, 1), (0, 0, 1), (0, 0, 1), (0, 0, 1), (0, 0, 1), (0, 0, 1), (0, 0, 1), (0, 0, -1), (0, 0, -1), (0, 0, -1), (0, 0, -1), (0, 0, -1), (0, 0, -1), (0, 0, -1), (0, 0, -1), (0, 0, -1), (2.4492932e-15, 0, -1), (2.4492932e-15, 0, -1), (2.4492932e-15, 0, -1), (0, 0, -1), (0, 0, -1), (0, 0, -1), (0, 0, -1), (0, 0, -1), (0, 0, -1), (0, 0, -1), (0, 0, -1), (0, 0, -1), (0, 0, -1), (0, 0, -1), (0, 0, -1), (0, 0, -1), (0, 0, -1), (0, 0, -1), (-7.347879e-15, 0, -1), (-7.347879e-15, 0, -1), (-7.347879e-15, 0, -1), (0, 0, -1), (0, 0, -1), (0, 0, -1), (0, 0, -1), (0, 0, -1), (0, 0, -1)] (
                    interpolation = "faceVarying"
                )
                point3f[] points = [(0, -0.045, 0.45), (0.0225, -0.038971145, 0.45), (0.038971145, -0.0225, 0.45), (0.045, -2.7554553e-18, 0.45), (0.038971145, 0.0225, 0.45), (0.0225, 0.038971145, 0.45), (5.5109105e-18, 0.045, 0.45), (-0.0225, 0.038971145, 0.45), (-0.038971145, 0.0225, 0.45), (-0.045, 8.266366e-18, 0.45), (-0.038971145, -0.0225, 0.45), (-0.0225, -0.038971145, 0.45), (-1.1021821e-17, -0.045, 0.45), (0, -0.045, -0.45), (0.0225, -0.038971145, -0.45), (0.038971145, -0.0225, -0.45), (0.045, -2.7554553e-18, -0.45), (0.038971145, 0.0225, -0.45), (0.0225, 0.038971145, -0.45), (5.5109105e-18, 0.045, -0.45), (-0.0225, 0.038971145, -0.45), (-0.038971145, 0.0225, -0.45), (-0.045, 8.266366e-18, -0.45), (-0.038971145, -0.0225, -0.45), (-0.0225, -0.038971145, -0.45), (-1.1021821e-17, -0.045, -0.45), (0, -0, 0.45), (0, -0, 0.45), (0, -0, 0.45), (0, -0, 0.45), (0, -0, 0.45), (0, -0, 0.45), (0, -0, 0.45), (0, -0, 0.45), (0, -0, 0.45), (0, -0, 0.45), (0, -0, 0.45), (0, -0, 0.45), (0, -0.045, 0.45), (0.0225, -0.038971145, 0.45), (0.038971145, -0.0225, 0.45), (0.045, -2.7554553e-18, 0.45), (0.038971145, 0.0225, 0.45), (0.0225, 0.038971145, 0.45), (5.5109105e-18, 0.045, 0.45), (-0.0225, 0.038971145, 0.45), (-0.038971145, 0.0225, 0.45), (-0.045, 8.266366e-18, 0.45), (-0.038971145, -0.0225, 0.45), (-0.0225, -0.038971145, 0.45), (-1.1021821e-17, -0.045, 0.45), (0, -0, -0.45), (0, -0, -0.45), (0, -0, -0.45), (0, -0, -0.45), (0, -0, -0.45), (0, -0, -0.45), (0, -0, -0.45), (0, -0, -0.45), (0, -0, -0.45), (0, -0, -0.45), (0, -0, -0.45), (0, -0, -0.45), (0, -0.045, -0.45), (0.0225, -0.038971145, -0.45), (0.038971145, -0.0225, -0.45), (0.045, -2.7554553e-18, -0.45), (0.038971145, 0.0225, -0.45), (0.0225, 0.038971145, -0.45), (5.5109105e-18, 0.045, -0.45), (-0.0225, 0.038971145, -0.45), (-0.038971145, 0.0225, -0.45), (-0.045, 8.266366e-18, -0.45), (-0.038971145, -0.0225, -0.45), (-0.0225, -0.038971145, -0.45), (-1.1021821e-17, -0.045, -0.45)]
                texCoord2f[] primvars:st = [(0, 0), (0, 1), (0.083333336, 0), (0, 1), (0.083333336, 1), (0.083333336, 0), (0.083333336, 0), (0.083333336, 1), (0.16666667, 0), (0.083333336, 1), (0.16666667, 1), (0.16666667, 0), (0.16666667, 0), (0.16666667, 1), (0.25, 0), (0.16666667, 1), (0.25, 1), (0.25, 0), (0.25, 0), (0.25, 1), (0.33333334, 0), (0.25, 1), (0.33333334, 1), (0.33333334, 0), (0.33333334, 0), (0.33333334, 1), (0.41666666, 0), (0.33333334, 1), (0.41666666, 1), (0.41666666, 0), (0.41666666, 0), (0.41666666, 1), (0.5, 0), (0.41666666, 1), (0.5, 1), (0.5, 0), (0.5, 0), (0.5, 1), (0.5833333, 0), (0.5, 1), (0.5833333, 1), (0.5833333, 0), (0.5833333, 0), (0.5833333, 1), (0.6666667, 0), (0.5833333, 1), (0.6666667, 1), (0.6666667, 0), (0.6666667, 0), (0.6666667, 1), (0.75, 0), (0.6666667, 1), (0.75, 1), (0.75, 0), (0.75, 0), (0.75, 1), (0.8333333, 0), (0.75, 1), (0.8333333, 1), (0.8333333, 0), (0.8333333, 0), (0.8333333, 1), (0.9166667, 0), (0.8333333, 1), (0.9166667, 1), (0.9166667, 0), (0.9166667, 0), (0.9166667, 1), (1, 0), (0.9166667, 1), (1, 1), (1, 0), (1, 0.5), (0.9330127, 0.25), (0.5, 0.5), (0.9330127, 0.25), (0.75, 0.066987276), (0.5, 0.5), (0.75, 0.066987276), (0.5, 0), (0.5, 0.5), (0.5, 0), (0.25, 0.066987276), (0.5, 0.5), (0.25, 0.066987276), (0.0669873, 0.25), (0.5, 0.5), (0.0669873, 0.25), (0, 0.5), (0.5, 0.5), (0, 0.5), (0.0669873, 0.75), (0.5, 0.5), (0.0669873, 0.75), (0.25, 0.9330127), (0.5, 0.5), (0.25, 0.9330127), (0.5, 1), (0.5, 0.5), (0.5, 1), (0.75, 0.9330127), (0.5, 0.5), (0.75, 0.9330127), (0.9330127, 0.75), (0.5, 0.5), (0.9330127, 0.75), (1, 0.5), (0.5, 0.5), (0.9330127, 0.75), (1, 0.5), (0.5, 0.5), (0.75, 0.9330127), (0.9330127, 0.75), (0.5, 0.5), (0.5, 1), (0.75, 0.9330127), (0.5, 0.5), (0.25, 0.9330127), (0.5, 1), (0.5, 0.5), (0.0669873, 0.75), (0.25, 0.9330127), (0.5, 0.5), (0, 0.5), (0.0669873, 0.75), (0.5, 0.5), (0.0669873, 0.25), (0, 0.5), (0.5, 0.5), (0.25, 0.066987276), (0.0669873, 0.25), (0.5, 0.5), (0.5, 0), (0.25, 0.066987276), (0.5, 0.5), (0.75, 0.066987276), (0.5, 0), (0.5, 0.5), (0.9330127, 0.25), (0.75, 0.066987276), (0.5, 0.5), (1, 0.5), (0.9330127, 0.25), (0.5, 0.5)] (
                    interpolation = "faceVarying"
                )
                uniform token subdivisionScheme = "none"
                custom string userProperties:blender:data_name = "Mesh_9.036"
            }
        }

        def Xform "tray_end_0_0_28"
        {
            custom string userProperties:blender:object_name = "tray_end_0_0.28"
            float3 xformOp:rotateXYZ = (0, -0, 0)
            float3 xformOp:scale = (1, 1, 1)
            double3 xformOp:translate = (-0.800000011920929, 0, 0.5)
            uniform token[] xformOpOrder = ["xformOp:translate", "xformOp:rotateXYZ", "xformOp:scale"]

            def Mesh "Mesh_5_043" (
                active = true
                prepend apiSchemas = ["MaterialBindingAPI"]
            )
            {
                uniform bool doubleSided = 0
                float3[] extent = [(-0.02, -0.475, -0.16), (0.02, 0.475, 0.16)]
                int[] faceVertexCounts = [3, 3, 3, 3, 3, 3, 3, 3, 3, 3, 3, 3]
                int[] faceVertexIndices = [0, 2, 1, 2, 3, 1, 4, 6, 5, 6, 7, 5, 8, 10, 9, 10, 11, 9, 12, 14, 13, 14, 15, 13, 16, 18, 17, 18, 19, 17, 20, 22, 21, 22, 23, 21]
                rel material:binding = </root/_materials/Material_5_043>
                normal3f[] normals = [(1, 0, 0), (1, 0, 0), (1, 0, 0), (1, 0, 0), (1, 0, 0), (1, 0, 0), (-1, 0, 0), (-1, 0, 0), (-1, 0, 0), (-1, 0, 0), (-1, 0, 0), (-1, 0, 0), (0, 0, 1), (0, 0, 1), (0, 0, 1), (0, 0, 1), (0, 0, 1), (0, 0, 1), (0, 0, -1), (0, 0, -1), (0, 0, -1), (0, 0, -1), (0, 0, -1), (0, 0, -1), (0, -1, 0), (0, -1, 0), (0, -1, 0), (0, -1, 0), (0, -1, 0), (0, -1, 0), (0, 1, 0), (0, 1, 0), (0, 1, 0), (0, 1, 0), (0, 1, 0), (0, 1, 0)] (
                    interpolation = "faceVarying"
                )
                point3f[] points = [(0.02, -0.475, 0.16), (0.02, 0.475, 0.16), (0.02, -0.475, -0.16), (0.02, 0.475, -0.16), (-0.02, 0.475, 0.16), (-0.02, -0.475, 0.16), (-0.02, 0.475, -0.16), (-0.02, -0.475, -0.16), (-0.02, 0.475, 0.16), (0.02, 0.475, 0.16), (-0.02, -0.475, 0.16), (0.02, -0.475, 0.16), (-0.02, -0.475, -0.16), (0.02, -0.475, -0.16), (-0.02, 0.475, -0.16), (0.02, 0.475, -0.16), (-0.02, -0.475, 0.16), (0.02, -0.475, 0.16), (-0.02, -0.475, -0.16), (0.02, -0.475, -0.16), (0.02, 0.475, 0.16), (-0.02, 0.475, 0.16), (0.02, 0.475, -0.16), (-0.02, 0.475, -0.16)]
                texCoord2f[] primvars:st = [(0, 0), (0, 1), (1, 0), (0, 1), (1, 1), (1, 0), (0, 0), (0, 1), (1, 0), (0, 1), (1, 1), (1, 0), (0, 0), (0, 1), (1, 0), (0, 1), (1, 1), (1, 0), (0, 0), (0, 1), (1, 0), (0, 1), (1, 1), (1, 0), (0, 0), (0, 1), (1, 0), (0, 1), (1, 1), (1, 0), (0, 0), (0, 1), (1, 0), (0, 1), (1, 1), (1, 0)] (
                    interpolation = "faceVarying"
                )
                uniform token subdivisionScheme = "none"
                custom string userProperties:blender:data_name = "Mesh_5.043"
            }
        }

        def Xform "tray_rim_0_0_48"
        {
            custom string userProperties:blender:object_name = "tray_rim_0_0.48"
            float3 xformOp:rotateXYZ = (0, -0, 0)
            float3 xformOp:scale = (1, 1, 1)
            double3 xformOp:translate = (-1.0800000429153442, -0.47999998927116394, 0.5)
            uniform token[] xformOpOrder = ["xformOp:translate", "xformOp:rotateXYZ", "xformOp:scale"]

            def Mesh "Mesh_3_043" (
                active = true
                prepend apiSchemas = ["MaterialBindingAPI"]
            )
            {
                uniform bool doubleSided = 0
                float3[] extent = [(-0.3, -0.02, -0.16), (0.3, 0.02, 0.16)]
                int[] faceVertexCounts = [3, 3, 3, 3, 3, 3, 3, 3, 3, 3, 3, 3]
                int[] faceVertexIndices = [0, 2, 1, 2, 3, 1, 4, 6, 5, 6, 7, 5, 8, 10, 9, 10, 11, 9, 12, 14, 13, 14, 15, 13, 16, 18, 17, 18, 19, 17, 20, 22, 21, 22, 23, 21]
                rel material:binding = </root/_materials/Material_3_043>
                normal3f[] normals = [(1, 0, 0), (1, 0, 0), (1, 0, 0), (1, 0, 0), (1, 0, 0), (1, 0, 0), (-1, 0, 0), (-1, 0, 0), (-1, 0, 0), (-1, 0, 0), (-1, 0, 0), (-1, 0, 0), (0, 0, 1), (0, 0, 1), (0, 0, 1), (0, 0, 1), (0, 0, 1), (0, 0, 1), (0, 0, -1), (0, 0, -1), (0, 0, -1), (0, 0, -1), (0, 0, -1), (0, 0, -1), (0, -1, 0), (0, -1, 0), (0, -1, 0), (0, -1, 0), (0, -1, 0), (0, -1, 0), (0, 1, 0), (0, 1, 0), (0, 1, 0), (0, 1, 0), (0, 1, 0), (0, 1, 0)] (
                    interpolation = "faceVarying"
                )
                point3f[] points = [(0.3, -0.02, 0.16), (0.3, 0.02, 0.16), (0.3, -0.02, -0.16), (0.3, 0.02, -0.16), (-0.3, 0.02, 0.16), (-0.3, -0.02, 0.16), (-0.3, 0.02, -0.16), (-0.3, -0.02, -0.16), (-0.3, 0.02, 0.16), (0.3, 0.02, 0.16), (-0.3, -0.02, 0.16), (0.3, -0.02, 0.16), (-0.3, -0.02, -0.16), (0.3, -0.02, -0.16), (-0.3, 0.02, -0.16), (0.3, 0.02, -0.16), (-0.3, -0.02, 0.16), (0.3, -0.02, 0.16), (-0.3, -0.02, -0.16), (0.3, -0.02, -0.16), (0.3, 0.02, 0.16), (-0.3, 0.02, 0.16), (0.3, 0.02, -0.16), (-0.3, 0.02, -0.16)]
                texCoord2f[] primvars:st = [(0, 0), (0, 1), (1, 0), (0, 1), (1, 1), (1, 0), (0, 0), (0, 1), (1, 0), (0, 1), (1, 1), (1, 0), (0, 0), (0, 1), (1, 0), (0, 1), (1, 1), (1, 0), (0, 0), (0, 1), (1, 0), (0, 1), (1, 1), (1, 0), (0, 0), (0, 1), (1, 0), (0, 1), (1, 1), (1, 0), (0, 0), (0, 1), (1, 0), (0, 1), (1, 1), (1, 0)] (
                    interpolation = "faceVarying"
                )
                uniform token subdivisionScheme = "none"
                custom string userProperties:blender:data_name = "Mesh_3.043"
            }
        }

        def Xform "operator_console"
        {
            custom string userProperties:blender:object_name = "operator_console"
            float3 xformOp:rotateXYZ = (0, -0, 0)
            float3 xformOp:scale = (1, 1, 1)
            double3 xformOp:translate = (1.2400000095367432, -0.8199999928474426, 0.8999999761581421)
            uniform token[] xformOpOrder = ["xformOp:translate", "xformOp:rotateXYZ", "xformOp:scale"]

            def Mesh "Mesh_15_019" (
                active = true
                prepend apiSchemas = ["MaterialBindingAPI"]
            )
            {
                uniform bool doubleSided = 0
                float3[] extent = [(-0.175, -0.125, -0.3), (0.175, 0.125, 0.3)]
                int[] faceVertexCounts = [3, 3, 3, 3, 3, 3, 3, 3, 3, 3, 3, 3]
                int[] faceVertexIndices = [0, 2, 1, 2, 3, 1, 4, 6, 5, 6, 7, 5, 8, 10, 9, 10, 11, 9, 12, 14, 13, 14, 15, 13, 16, 18, 17, 18, 19, 17, 20, 22, 21, 22, 23, 21]
                rel material:binding = </root/_materials/Material_15_019>
                normal3f[] normals = [(1, 0, 0), (1, 0, 0), (1, 0, 0), (1, 0, 0), (1, 0, 0), (1, 0, 0), (-1, 0, 0), (-1, 0, 0), (-1, 0, 0), (-1, 0, 0), (-1, 0, 0), (-1, 0, 0), (0, 0, 1), (0, 0, 1), (0, 0, 1), (0, 0, 1), (0, 0, 1), (0, 0, 1), (0, 0, -1), (0, 0, -1), (0, 0, -1), (0, 0, -1), (0, 0, -1), (0, 0, -1), (0, -1, 0), (0, -1, 0), (0, -1, 0), (0, -1, 0), (0, -1, 0), (0, -1, 0), (0, 1, 0), (0, 1, 0), (0, 1, 0), (0, 1, 0), (0, 1, 0), (0, 1, 0)] (
                    interpolation = "faceVarying"
                )
                point3f[] points = [(0.175, -0.125, 0.3), (0.175, 0.125, 0.3), (0.175, -0.125, -0.3), (0.175, 0.125, -0.3), (-0.175, 0.125, 0.3), (-0.175, -0.125, 0.3), (-0.175, 0.125, -0.3), (-0.175, -0.125, -0.3), (-0.175, 0.125, 0.3), (0.175, 0.125, 0.3), (-0.175, -0.125, 0.3), (0.175, -0.125, 0.3), (-0.175, -0.125, -0.3), (0.175, -0.125, -0.3), (-0.175, 0.125, -0.3), (0.175, 0.125, -0.3), (-0.175, -0.125, 0.3), (0.175, -0.125, 0.3), (-0.175, -0.125, -0.3), (0.175, -0.125, -0.3), (0.175, 0.125, 0.3), (-0.175, 0.125, 0.3), (0.175, 0.125, -0.3), (-0.175, 0.125, -0.3)]
                texCoord2f[] primvars:st = [(0, 0), (0, 1), (1, 0), (0, 1), (1, 1), (1, 0), (0, 0), (0, 1), (1, 0), (0, 1), (1, 1), (1, 0), (0, 0), (0, 1), (1, 0), (0, 1), (1, 1), (1, 0), (0, 0), (0, 1), (1, 0), (0, 1), (1, 1), (1, 0), (0, 0), (0, 1), (1, 0), (0, 1), (1, 1), (1, 0), (0, 0), (0, 1), (1, 0), (0, 1), (1, 1), (1, 0)] (
                    interpolation = "faceVarying"
                )
                uniform token subdivisionScheme = "none"
                custom string userProperties:blender:data_name = "Mesh_15.019"
            }
        }

        def Xform "conveyor_idler_3_1"
        {
            custom string userProperties:blender:object_name = "conveyor_idler_3_1"
            float3 xformOp:rotateXYZ = (90.000015, -0, 0)
            float3 xformOp:scale = (1, 1.0000001, 1.0000001)
            double3 xformOp:translate = (0.8399999737739563, 0, 0.5299999713897705)
            uniform token[] xformOpOrder = ["xformOp:translate", "xformOp:rotateXYZ", "xformOp:scale"]

            def Mesh "Mesh_10_033" (
                active = true
                prepend apiSchemas = ["MaterialBindingAPI"]
            )
            {
                uniform bool doubleSided = 0
                float3[] extent = [(-0.045, -0.045, -0.45), (0.045, 0.045, 0.45)]
                int[] faceVertexCounts = [3, 3, 3, 3, 3, 3, 3, 3, 3, 3, 3, 3, 3, 3, 3, 3, 3, 3, 3, 3, 3, 3, 3, 3, 3, 3, 3, 3, 3, 3, 3, 3, 3, 3, 3, 3, 3, 3, 3, 3, 3, 3, 3, 3, 3, 3, 3, 3]
                int[] faceVertexIndices = [0, 13, 1, 13, 14, 1, 1, 14, 2, 14, 15, 2, 2, 15, 3, 15, 16, 3, 3, 16, 4, 16, 17, 4, 4, 17, 5, 17, 18, 5, 5, 18, 6, 18, 19, 6, 6, 19, 7, 19, 20, 7, 7, 20, 8, 20, 21, 8, 8, 21, 9, 21, 22, 9, 9, 22, 10, 22, 23, 10, 10, 23, 11, 23, 24, 11, 11, 24, 12, 24, 25, 12, 38, 39, 26, 39, 40, 27, 40, 41, 28, 41, 42, 29, 42, 43, 30, 43, 44, 31, 44, 45, 32, 45, 46, 33, 46, 47, 34, 47, 48, 35, 48, 49, 36, 49, 50, 37, 64, 63, 51, 65, 64, 52, 66, 65, 53, 67, 66, 54, 68, 67, 55, 69, 68, 56, 70, 69, 57, 71, 70, 58, 72, 71, 59, 73, 72, 60, 74, 73, 61, 75, 74, 62]
                rel material:binding = </root/_materials/Material_10_033>
                normal3f[] normals = [(0.000055909157, -1, -0.000012420108), (0.000055879354, -1, 0.000086826636), (0.49999863, -0.86602616, 0), (0.000055879354, -1, 0.000086826636), (0.5000013, -0.8660246, 0), (0.49999863, -0.86602616, 0), (0.49999863, -0.86602616, 0), (0.5000013, -0.8660246, 0), (0.8660247, -0.5000013, 0), (0.5000013, -0.8660246, 0), (0.86602616, -0.49999872, 0), (0.8660247, -0.5000013, 0), (0.8660247, -0.5000013, 0), (0.86602616, -0.49999872, 0), (1, -0.0000013945761, 0), (0.86602616, -0.49999872, 0), (1, 0.0000013945761, 0), (1, -0.0000013945761, 0), (1, -0.0000013945761, 0), (1, 0.0000013945761, 0), (0.86602616, 0.49999872, 0), (1, 0.0000013945761, 0), (0.8660247, 0.5000013, 0), (0.86602616, 0.49999872, 0), (0.86602616, 0.49999872, 0), (0.8660247, 0.5000013, 0), (0.5000013, 0.8660246, 0), (0.8660247, 0.5000013, 0), (0.49999863, 0.86602616, 0), (0.5000013, 0.8660246, 0), (0.5000013, 0.8660246, 0), (0.49999863, 0.86602616, 0), (0.0000015713534, 1, 0), (0.49999863, 0.86602616, 0), (-0.0000015713534, 1, 0), (0.0000015713534, 1, 0), (0.0000015713534, 1, 0), (-0.0000015713534, 1, 0), (-0.49999863, 0.86602616, 0), (-0.0000015713534, 1, 0), (-0.5000013, 0.8660246, 0), (-0.49999863, 0.86602616, 0), (-0.49999863, 0.86602616, 0), (-0.5000013, 0.8660246, 0), (-0.8660247, 0.5000013, 0), (-0.5000013, 0.8660246, 0), (-0.86602616, 0.49999872, 0), (-0.8660247, 0.5000013, 0), (-0.8660247, 0.5000013, 0), (-0.86602616, 0.49999872, 0), (-1, 0.0000013945761, 0), (-0.86602616, 0.49999872, 0), (-1, -0.0000013945761, 0), (-1, 0.0000013945761, 0), (-1, 0.0000013945761, 0), (-1, -0.0000013945761, 0), (-0.86602616, -0.49999872, 0), (-1, -0.0000013945761, 0), (-0.8660247, -0.5000013, 0), (-0.86602616, -0.49999872, 0), (-0.86602616, -0.49999872, 0), (-0.8660247, -0.5000013, 0), (-0.5000013, -0.8660246, 0), (-0.8660247, -0.5000013, 0), (-0.49999863, -0.86602616, 0), (-0.5000013, -0.8660246, 0), (-0.5000013, -0.8660246, 0), (-0.49999863, -0.86602616, 0), (-0.000055879354, -1, -0.000086826636), (-0.49999863, -0.86602616, 0), (-0.000055909157, -1, 0.000012420108), (-0.000055879354, -1, -0.000086826636), (0, 0, 1), (0, 0, 1), (0, 0, 1), (0, 0, 1), (0, 0, 1), (0, 0, 1), (-2.4492932e-15, 0, 1), (-2.4492932e-15, 0, 1), (-2.4492932e-15, 0, 1), (0, 0, 1), (0, 0, 1), (0, 0, 1), (0, 0, 1), (0, 0, 1), (0, 0, 1), (0, 0, 1), (0, 0, 1), (0, 0, 1), (0, 0, 1), (0, 0, 1), (0, 0, 1), (0, 0, 1), (0, 0, 1), (0, 0, 1), (7.347879e-15, 0, 1), (7.347879e-15, 0, 1), (7.347879e-15, 0, 1), (0, 0, 1), (0, 0, 1), (0, 0, 1), (0, 0, 1), (0, 0, 1), (0, 0, 1), (0, 0, 1), (0, 0, 1), (0, 0, 1), (0, 0, -1), (0, 0, -1), (0, 0, -1), (0, 0, -1), (0, 0, -1), (0, 0, -1), (0, 0, -1), (0, 0, -1), (0, 0, -1), (2.4492932e-15, 0, -1), (2.4492932e-15, 0, -1), (2.4492932e-15, 0, -1), (0, 0, -1), (0, 0, -1), (0, 0, -1), (0, 0, -1), (0, 0, -1), (0, 0, -1), (0, 0, -1), (0, 0, -1), (0, 0, -1), (0, 0, -1), (0, 0, -1), (0, 0, -1), (0, 0, -1), (0, 0, -1), (0, 0, -1), (-7.347879e-15, 0, -1), (-7.347879e-15, 0, -1), (-7.347879e-15, 0, -1), (0, 0, -1), (0, 0, -1), (0, 0, -1), (0, 0, -1), (0, 0, -1), (0, 0, -1)] (
                    interpolation = "faceVarying"
                )
                point3f[] points = [(0, -0.045, 0.45), (0.0225, -0.038971145, 0.45), (0.038971145, -0.0225, 0.45), (0.045, -2.7554553e-18, 0.45), (0.038971145, 0.0225, 0.45), (0.0225, 0.038971145, 0.45), (5.5109105e-18, 0.045, 0.45), (-0.0225, 0.038971145, 0.45), (-0.038971145, 0.0225, 0.45), (-0.045, 8.266366e-18, 0.45), (-0.038971145, -0.0225, 0.45), (-0.0225, -0.038971145, 0.45), (-1.1021821e-17, -0.045, 0.45), (0, -0.045, -0.45), (0.0225, -0.038971145, -0.45), (0.038971145, -0.0225, -0.45), (0.045, -2.7554553e-18, -0.45), (0.038971145, 0.0225, -0.45), (0.0225, 0.038971145, -0.45), (5.5109105e-18, 0.045, -0.45), (-0.0225, 0.038971145, -0.45), (-0.038971145, 0.0225, -0.45), (-0.045, 8.266366e-18, -0.45), (-0.038971145, -0.0225, -0.45), (-0.0225, -0.038971145, -0.45), (-1.1021821e-17, -0.045, -0.45), (0, -0, 0.45), (0, -0, 0.45), (0, -0, 0.45), (0, -0, 0.45), (0, -0, 0.45), (0, -0, 0.45), (0, -0, 0.45), (0, -0, 0.45), (0, -0, 0.45), (0, -0, 0.45), (0, -0, 0.45), (0, -0, 0.45), (0, -0.045, 0.45), (0.0225, -0.038971145, 0.45), (0.038971145, -0.0225, 0.45), (0.045, -2.7554553e-18, 0.45), (0.038971145, 0.0225, 0.45), (0.0225, 0.038971145, 0.45), (5.5109105e-18, 0.045, 0.45), (-0.0225, 0.038971145, 0.45), (-0.038971145, 0.0225, 0.45), (-0.045, 8.266366e-18, 0.45), (-0.038971145, -0.0225, 0.45), (-0.0225, -0.038971145, 0.45), (-1.1021821e-17, -0.045, 0.45), (0, -0, -0.45), (0, -0, -0.45), (0, -0, -0.45), (0, -0, -0.45), (0, -0, -0.45), (0, -0, -0.45), (0, -0, -0.45), (0, -0, -0.45), (0, -0, -0.45), (0, -0, -0.45), (0, -0, -0.45), (0, -0, -0.45), (0, -0.045, -0.45), (0.0225, -0.038971145, -0.45), (0.038971145, -0.0225, -0.45), (0.045, -2.7554553e-18, -0.45), (0.038971145, 0.0225, -0.45), (0.0225, 0.038971145, -0.45), (5.5109105e-18, 0.045, -0.45), (-0.0225, 0.038971145, -0.45), (-0.038971145, 0.0225, -0.45), (-0.045, 8.266366e-18, -0.45), (-0.038971145, -0.0225, -0.45), (-0.0225, -0.038971145, -0.45), (-1.1021821e-17, -0.045, -0.45)]
                texCoord2f[] primvars:st = [(0, 0), (0, 1), (0.083333336, 0), (0, 1), (0.083333336, 1), (0.083333336, 0), (0.083333336, 0), (0.083333336, 1), (0.16666667, 0), (0.083333336, 1), (0.16666667, 1), (0.16666667, 0), (0.16666667, 0), (0.16666667, 1), (0.25, 0), (0.16666667, 1), (0.25, 1), (0.25, 0), (0.25, 0), (0.25, 1), (0.33333334, 0), (0.25, 1), (0.33333334, 1), (0.33333334, 0), (0.33333334, 0), (0.33333334, 1), (0.41666666, 0), (0.33333334, 1), (0.41666666, 1), (0.41666666, 0), (0.41666666, 0), (0.41666666, 1), (0.5, 0), (0.41666666, 1), (0.5, 1), (0.5, 0), (0.5, 0), (0.5, 1), (0.5833333, 0), (0.5, 1), (0.5833333, 1), (0.5833333, 0), (0.5833333, 0), (0.5833333, 1), (0.6666667, 0), (0.5833333, 1), (0.6666667, 1), (0.6666667, 0), (0.6666667, 0), (0.6666667, 1), (0.75, 0), (0.6666667, 1), (0.75, 1), (0.75, 0), (0.75, 0), (0.75, 1), (0.8333333, 0), (0.75, 1), (0.8333333, 1), (0.8333333, 0), (0.8333333, 0), (0.8333333, 1), (0.9166667, 0), (0.8333333, 1), (0.9166667, 1), (0.9166667, 0), (0.9166667, 0), (0.9166667, 1), (1, 0), (0.9166667, 1), (1, 1), (1, 0), (1, 0.5), (0.9330127, 0.25), (0.5, 0.5), (0.9330127, 0.25), (0.75, 0.066987276), (0.5, 0.5), (0.75, 0.066987276), (0.5, 0), (0.5, 0.5), (0.5, 0), (0.25, 0.066987276), (0.5, 0.5), (0.25, 0.066987276), (0.0669873, 0.25), (0.5, 0.5), (0.0669873, 0.25), (0, 0.5), (0.5, 0.5), (0, 0.5), (0.0669873, 0.75), (0.5, 0.5), (0.0669873, 0.75), (0.25, 0.9330127), (0.5, 0.5), (0.25, 0.9330127), (0.5, 1), (0.5, 0.5), (0.5, 1), (0.75, 0.9330127), (0.5, 0.5), (0.75, 0.9330127), (0.9330127, 0.75), (0.5, 0.5), (0.9330127, 0.75), (1, 0.5), (0.5, 0.5), (0.9330127, 0.75), (1, 0.5), (0.5, 0.5), (0.75, 0.9330127), (0.9330127, 0.75), (0.5, 0.5), (0.5, 1), (0.75, 0.9330127), (0.5, 0.5), (0.25, 0.9330127), (0.5, 1), (0.5, 0.5), (0.0669873, 0.75), (0.25, 0.9330127), (0.5, 0.5), (0, 0.5), (0.0669873, 0.75), (0.5, 0.5), (0.0669873, 0.25), (0, 0.5), (0.5, 0.5), (0.25, 0.066987276), (0.0669873, 0.25), (0.5, 0.5), (0.5, 0), (0.25, 0.066987276), (0.5, 0.5), (0.75, 0.066987276), (0.5, 0), (0.5, 0.5), (0.9330127, 0.25), (0.75, 0.066987276), (0.5, 0.5), (1, 0.5), (0.9330127, 0.25), (0.5, 0.5)] (
                    interpolation = "faceVarying"
                )
                uniform token subdivisionScheme = "none"
                custom string userProperties:blender:data_name = "Mesh_10.033"
            }
        }

        def Xform "conveyor_idler_3_5"
        {
            custom string userProperties:blender:object_name = "conveyor_idler_3_5"
            float3 xformOp:rotateXYZ = (90.000015, -0, 0)
            float3 xformOp:scale = (1, 1.0000001, 1.0000001)
            double3 xformOp:translate = (1.4800000190734863, 0, 0.5299999713897705)
            uniform token[] xformOpOrder = ["xformOp:translate", "xformOp:rotateXYZ", "xformOp:scale"]

            def Mesh "Mesh_14_022" (
                active = true
                prepend apiSchemas = ["MaterialBindingAPI"]
            )
            {
                uniform bool doubleSided = 0
                float3[] extent = [(-0.045, -0.045, -0.45), (0.045, 0.045, 0.45)]
                int[] faceVertexCounts = [3, 3, 3, 3, 3, 3, 3, 3, 3, 3, 3, 3, 3, 3, 3, 3, 3, 3, 3, 3, 3, 3, 3, 3, 3, 3, 3, 3, 3, 3, 3, 3, 3, 3, 3, 3, 3, 3, 3, 3, 3, 3, 3, 3, 3, 3, 3, 3]
                int[] faceVertexIndices = [0, 13, 1, 13, 14, 1, 1, 14, 2, 14, 15, 2, 2, 15, 3, 15, 16, 3, 3, 16, 4, 16, 17, 4, 4, 17, 5, 17, 18, 5, 5, 18, 6, 18, 19, 6, 6, 19, 7, 19, 20, 7, 7, 20, 8, 20, 21, 8, 8, 21, 9, 21, 22, 9, 9, 22, 10, 22, 23, 10, 10, 23, 11, 23, 24, 11, 11, 24, 12, 24, 25, 12, 38, 39, 26, 39, 40, 27, 40, 41, 28, 41, 42, 29, 42, 43, 30, 43, 44, 31, 44, 45, 32, 45, 46, 33, 46, 47, 34, 47, 48, 35, 48, 49, 36, 49, 50, 37, 64, 63, 51, 65, 64, 52, 66, 65, 53, 67, 66, 54, 68, 67, 55, 69, 68, 56, 70, 69, 57, 71, 70, 58, 72, 71, 59, 73, 72, 60, 74, 73, 61, 75, 74, 62]
                rel material:binding = </root/_materials/Material_14_022>
                normal3f[] normals = [(0.000055909157, -1, -0.000012420108), (0.000055879354, -1, 0.000086826636), (0.49999863, -0.86602616, 0), (0.000055879354, -1, 0.000086826636), (0.5000013, -0.8660246, 0), (0.49999863, -0.86602616, 0), (0.49999863, -0.86602616, 0), (0.5000013, -0.8660246, 0), (0.8660247, -0.5000013, 0), (0.5000013, -0.8660246, 0), (0.86602616, -0.49999872, 0), (0.8660247, -0.5000013, 0), (0.8660247, -0.5000013, 0), (0.86602616, -0.49999872, 0), (1, -0.0000013945761, 0), (0.86602616, -0.49999872, 0), (1, 0.0000013945761, 0), (1, -0.0000013945761, 0), (1, -0.0000013945761, 0), (1, 0.0000013945761, 0), (0.86602616, 0.49999872, 0), (1, 0.0000013945761, 0), (0.8660247, 0.5000013, 0), (0.86602616, 0.49999872, 0), (0.86602616, 0.49999872, 0), (0.8660247, 0.5000013, 0), (0.5000013, 0.8660246, 0), (0.8660247, 0.5000013, 0), (0.49999863, 0.86602616, 0), (0.5000013, 0.8660246, 0), (0.5000013, 0.8660246, 0), (0.49999863, 0.86602616, 0), (0.0000015713534, 1, 0), (0.49999863, 0.86602616, 0), (-0.0000015713534, 1, 0), (0.0000015713534, 1, 0), (0.0000015713534, 1, 0), (-0.0000015713534, 1, 0), (-0.49999863, 0.86602616, 0), (-0.0000015713534, 1, 0), (-0.5000013, 0.8660246, 0), (-0.49999863, 0.86602616, 0), (-0.49999863, 0.86602616, 0), (-0.5000013, 0.8660246, 0), (-0.8660247, 0.5000013, 0), (-0.5000013, 0.8660246, 0), (-0.86602616, 0.49999872, 0), (-0.8660247, 0.5000013, 0), (-0.8660247, 0.5000013, 0), (-0.86602616, 0.49999872, 0), (-1, 0.0000013945761, 0), (-0.86602616, 0.49999872, 0), (-1, -0.0000013945761, 0), (-1, 0.0000013945761, 0), (-1, 0.0000013945761, 0), (-1, -0.0000013945761, 0), (-0.86602616, -0.49999872, 0), (-1, -0.0000013945761, 0), (-0.8660247, -0.5000013, 0), (-0.86602616, -0.49999872, 0), (-0.86602616, -0.49999872, 0), (-0.8660247, -0.5000013, 0), (-0.5000013, -0.8660246, 0), (-0.8660247, -0.5000013, 0), (-0.49999863, -0.86602616, 0), (-0.5000013, -0.8660246, 0), (-0.5000013, -0.8660246, 0), (-0.49999863, -0.86602616, 0), (-0.000055879354, -1, -0.000086826636), (-0.49999863, -0.86602616, 0), (-0.000055909157, -1, 0.000012420108), (-0.000055879354, -1, -0.000086826636), (0, 0, 1), (0, 0, 1), (0, 0, 1), (0, 0, 1), (0, 0, 1), (0, 0, 1), (-2.4492932e-15, 0, 1), (-2.4492932e-15, 0, 1), (-2.4492932e-15, 0, 1), (0, 0, 1), (0, 0, 1), (0, 0, 1), (0, 0, 1), (0, 0, 1), (0, 0, 1), (0, 0, 1), (0, 0, 1), (0, 0, 1), (0, 0, 1), (0, 0, 1), (0, 0, 1), (0, 0, 1), (0, 0, 1), (0, 0, 1), (7.347879e-15, 0, 1), (7.347879e-15, 0, 1), (7.347879e-15, 0, 1), (0, 0, 1), (0, 0, 1), (0, 0, 1), (0, 0, 1), (0, 0, 1), (0, 0, 1), (0, 0, 1), (0, 0, 1), (0, 0, 1), (0, 0, -1), (0, 0, -1), (0, 0, -1), (0, 0, -1), (0, 0, -1), (0, 0, -1), (0, 0, -1), (0, 0, -1), (0, 0, -1), (2.4492932e-15, 0, -1), (2.4492932e-15, 0, -1), (2.4492932e-15, 0, -1), (0, 0, -1), (0, 0, -1), (0, 0, -1), (0, 0, -1), (0, 0, -1), (0, 0, -1), (0, 0, -1), (0, 0, -1), (0, 0, -1), (0, 0, -1), (0, 0, -1), (0, 0, -1), (0, 0, -1), (0, 0, -1), (0, 0, -1), (-7.347879e-15, 0, -1), (-7.347879e-15, 0, -1), (-7.347879e-15, 0, -1), (0, 0, -1), (0, 0, -1), (0, 0, -1), (0, 0, -1), (0, 0, -1), (0, 0, -1)] (
                    interpolation = "faceVarying"
                )
                point3f[] points = [(0, -0.045, 0.45), (0.0225, -0.038971145, 0.45), (0.038971145, -0.0225, 0.45), (0.045, -2.7554553e-18, 0.45), (0.038971145, 0.0225, 0.45), (0.0225, 0.038971145, 0.45), (5.5109105e-18, 0.045, 0.45), (-0.0225, 0.038971145, 0.45), (-0.038971145, 0.0225, 0.45), (-0.045, 8.266366e-18, 0.45), (-0.038971145, -0.0225, 0.45), (-0.0225, -0.038971145, 0.45), (-1.1021821e-17, -0.045, 0.45), (0, -0.045, -0.45), (0.0225, -0.038971145, -0.45), (0.038971145, -0.0225, -0.45), (0.045, -2.7554553e-18, -0.45), (0.038971145, 0.0225, -0.45), (0.0225, 0.038971145, -0.45), (5.5109105e-18, 0.045, -0.45), (-0.0225, 0.038971145, -0.45), (-0.038971145, 0.0225, -0.45), (-0.045, 8.266366e-18, -0.45), (-0.038971145, -0.0225, -0.45), (-0.0225, -0.038971145, -0.45), (-1.1021821e-17, -0.045, -0.45), (0, -0, 0.45), (0, -0, 0.45), (0, -0, 0.45), (0, -0, 0.45), (0, -0, 0.45), (0, -0, 0.45), (0, -0, 0.45), (0, -0, 0.45), (0, -0, 0.45), (0, -0, 0.45), (0, -0, 0.45), (0, -0, 0.45), (0, -0.045, 0.45), (0.0225, -0.038971145, 0.45), (0.038971145, -0.0225, 0.45), (0.045, -2.7554553e-18, 0.45), (0.038971145, 0.0225, 0.45), (0.0225, 0.038971145, 0.45), (5.5109105e-18, 0.045, 0.45), (-0.0225, 0.038971145, 0.45), (-0.038971145, 0.0225, 0.45), (-0.045, 8.266366e-18, 0.45), (-0.038971145, -0.0225, 0.45), (-0.0225, -0.038971145, 0.45), (-1.1021821e-17, -0.045, 0.45), (0, -0, -0.45), (0, -0, -0.45), (0, -0, -0.45), (0, -0, -0.45), (0, -0, -0.45), (0, -0, -0.45), (0, -0, -0.45), (0, -0, -0.45), (0, -0, -0.45), (0, -0, -0.45), (0, -0, -0.45), (0, -0, -0.45), (0, -0.045, -0.45), (0.0225, -0.038971145, -0.45), (0.038971145, -0.0225, -0.45), (0.045, -2.7554553e-18, -0.45), (0.038971145, 0.0225, -0.45), (0.0225, 0.038971145, -0.45), (5.5109105e-18, 0.045, -0.45), (-0.0225, 0.038971145, -0.45), (-0.038971145, 0.0225, -0.45), (-0.045, 8.266366e-18, -0.45), (-0.038971145, -0.0225, -0.45), (-0.0225, -0.038971145, -0.45), (-1.1021821e-17, -0.045, -0.45)]
                texCoord2f[] primvars:st = [(0, 0), (0, 1), (0.083333336, 0), (0, 1), (0.083333336, 1), (0.083333336, 0), (0.083333336, 0), (0.083333336, 1), (0.16666667, 0), (0.083333336, 1), (0.16666667, 1), (0.16666667, 0), (0.16666667, 0), (0.16666667, 1), (0.25, 0), (0.16666667, 1), (0.25, 1), (0.25, 0), (0.25, 0), (0.25, 1), (0.33333334, 0), (0.25, 1), (0.33333334, 1), (0.33333334, 0), (0.33333334, 0), (0.33333334, 1), (0.41666666, 0), (0.33333334, 1), (0.41666666, 1), (0.41666666, 0), (0.41666666, 0), (0.41666666, 1), (0.5, 0), (0.41666666, 1), (0.5, 1), (0.5, 0), (0.5, 0), (0.5, 1), (0.5833333, 0), (0.5, 1), (0.5833333, 1), (0.5833333, 0), (0.5833333, 0), (0.5833333, 1), (0.6666667, 0), (0.5833333, 1), (0.6666667, 1), (0.6666667, 0), (0.6666667, 0), (0.6666667, 1), (0.75, 0), (0.6666667, 1), (0.75, 1), (0.75, 0), (0.75, 0), (0.75, 1), (0.8333333, 0), (0.75, 1), (0.8333333, 1), (0.8333333, 0), (0.8333333, 0), (0.8333333, 1), (0.9166667, 0), (0.8333333, 1), (0.9166667, 1), (0.9166667, 0), (0.9166667, 0), (0.9166667, 1), (1, 0), (0.9166667, 1), (1, 1), (1, 0), (1, 0.5), (0.9330127, 0.25), (0.5, 0.5), (0.9330127, 0.25), (0.75, 0.066987276), (0.5, 0.5), (0.75, 0.066987276), (0.5, 0), (0.5, 0.5), (0.5, 0), (0.25, 0.066987276), (0.5, 0.5), (0.25, 0.066987276), (0.0669873, 0.25), (0.5, 0.5), (0.0669873, 0.25), (0, 0.5), (0.5, 0.5), (0, 0.5), (0.0669873, 0.75), (0.5, 0.5), (0.0669873, 0.75), (0.25, 0.9330127), (0.5, 0.5), (0.25, 0.9330127), (0.5, 1), (0.5, 0.5), (0.5, 1), (0.75, 0.9330127), (0.5, 0.5), (0.75, 0.9330127), (0.9330127, 0.75), (0.5, 0.5), (0.9330127, 0.75), (1, 0.5), (0.5, 0.5), (0.9330127, 0.75), (1, 0.5), (0.5, 0.5), (0.75, 0.9330127), (0.9330127, 0.75), (0.5, 0.5), (0.5, 1), (0.75, 0.9330127), (0.5, 0.5), (0.25, 0.9330127), (0.5, 1), (0.5, 0.5), (0.0669873, 0.75), (0.25, 0.9330127), (0.5, 0.5), (0, 0.5), (0.0669873, 0.75), (0.5, 0.5), (0.0669873, 0.25), (0, 0.5), (0.5, 0.5), (0.25, 0.066987276), (0.0669873, 0.25), (0.5, 0.5), (0.5, 0), (0.25, 0.066987276), (0.5, 0.5), (0.75, 0.066987276), (0.5, 0), (0.5, 0.5), (0.9330127, 0.25), (0.75, 0.066987276), (0.5, 0.5), (1, 0.5), (0.9330127, 0.25), (0.5, 0.5)] (
                    interpolation = "faceVarying"
                )
                uniform token subdivisionScheme = "none"
                custom string userProperties:blender:data_name = "Mesh_14.022"
            }
        }

        def Xform "conveyor_3"
        {
            custom string userProperties:blender:object_name = "conveyor_3"
            float3 xformOp:rotateXYZ = (0, -0, 0)
            float3 xformOp:scale = (1, 1, 1)
            double3 xformOp:translate = (1.0800000429153442, 0, 0.6499999761581421)
            uniform token[] xformOpOrder = ["xformOp:translate", "xformOp:rotateXYZ", "xformOp:scale"]

            def Mesh "Mesh_8_038" (
                active = true
                prepend apiSchemas = ["MaterialBindingAPI"]
            )
            {
                uniform bool doubleSided = 0
                float3[] extent = [(-0.55, -0.5, -0.075), (0.55, 0.5, 0.075)]
                int[] faceVertexCounts = [3, 3, 3, 3, 3, 3, 3, 3, 3, 3, 3, 3]
                int[] faceVertexIndices = [0, 2, 1, 2, 3, 1, 4, 6, 5, 6, 7, 5, 8, 10, 9, 10, 11, 9, 12, 14, 13, 14, 15, 13, 16, 18, 17, 18, 19, 17, 20, 22, 21, 22, 23, 21]
                rel material:binding = </root/_materials/Material_8_038>
                normal3f[] normals = [(1, 0, 0), (1, 0, 0), (1, 0, 0), (1, 0, 0), (1, 0, 0), (1, 0, 0), (-1, 0, 0), (-1, 0, 0), (-1, 0, 0), (-1, 0, 0), (-1, 0, 0), (-1, 0, 0), (0, 0, 1), (0, 0, 1), (0, 0, 1), (0, 0, 1), (0, 0, 1), (0, 0, 1), (0, 0, -1), (0, 0, -1), (0, 0, -1), (0, 0, -1), (0, 0, -1), (0, 0, -1), (0, -1, 0), (0, -1, 0), (0, -1, 0), (0, -1, 0), (0, -1, 0), (0, -1, 0), (0, 1, 0), (0, 1, 0), (0, 1, 0), (0, 1, 0), (0, 1, 0), (0, 1, 0)] (
                    interpolation = "faceVarying"
                )
                point3f[] points = [(0.55, -0.5, 0.075), (0.55, 0.5, 0.075), (0.55, -0.5, -0.075), (0.55, 0.5, -0.075), (-0.55, 0.5, 0.075), (-0.55, -0.5, 0.075), (-0.55, 0.5, -0.075), (-0.55, -0.5, -0.075), (-0.55, 0.5, 0.075), (0.55, 0.5, 0.075), (-0.55, -0.5, 0.075), (0.55, -0.5, 0.075), (-0.55, -0.5, -0.075), (0.55, -0.5, -0.075), (-0.55, 0.5, -0.075), (0.55, 0.5, -0.075), (-0.55, -0.5, 0.075), (0.55, -0.5, 0.075), (-0.55, -0.5, -0.075), (0.55, -0.5, -0.075), (0.55, 0.5, 0.075), (-0.55, 0.5, 0.075), (0.55, 0.5, -0.075), (-0.55, 0.5, -0.075)]
                texCoord2f[] primvars:st = [(0, 0), (0, 1), (1, 0), (0, 1), (1, 1), (1, 0), (0, 0), (0, 1), (1, 0), (0, 1), (1, 1), (1, 0), (0, 0), (0, 1), (1, 0), (0, 1), (1, 1), (1, 0), (0, 0), (0, 1), (1, 0), (0, 1), (1, 1), (1, 0), (0, 0), (0, 1), (1, 0), (0, 1), (1, 1), (1, 0), (0, 0), (0, 1), (1, 0), (0, 1), (1, 1), (1, 0)] (
                    interpolation = "faceVarying"
                )
                uniform token subdivisionScheme = "none"
                custom string userProperties:blender:data_name = "Mesh_8.038"
            }
        }
    }

    def Scope "_materials"
    {
        def Material "Material_6_043"
        {
            token outputs:surface.connect = </root/_materials/Material_6_043/Principled_BSDF.outputs:surface>
            custom string userProperties:blender:data_name = "Material_6.043"

            def Shader "Principled_BSDF"
            {
                uniform token info:id = "UsdPreviewSurface"
                float inputs:clearcoat = 0
                float inputs:clearcoatRoughness = 0.03
                color3f inputs:diffuseColor = (0.004391442, 0.1746474, 0.27889428)
                float inputs:ior = 1.5
                float inputs:metallic = 0.25
                float inputs:opacity = 1
                float inputs:roughness = 0.55
                float inputs:specular = 0.5
                token outputs:surface
            }
        }

        def Material "Material_16_019"
        {
            token outputs:surface.connect = </root/_materials/Material_16_019/Principled_BSDF.outputs:surface>
            custom string userProperties:blender:data_name = "Material_16.019"

            def Shader "Principled_BSDF"
            {
                uniform token info:id = "UsdPreviewSurface"
                float inputs:clearcoat = 0
                float inputs:clearcoatRoughness = 0.03
                color3f inputs:diffuseColor = (0.039546236, 0.50888133, 0.9386857)
                float inputs:ior = 1.5
                float inputs:metallic = 0.25
                float inputs:opacity = 1
                float inputs:roughness = 0.55
                float inputs:specular = 0.5
                token outputs:surface
            }
        }

        def Material "Material_1_043"
        {
            token outputs:surface.connect = </root/_materials/Material_1_043/Principled_BSDF.outputs:surface>
            custom string userProperties:blender:data_name = "Material_1.043"

            def Shader "Principled_BSDF"
            {
                uniform token info:id = "UsdPreviewSurface"
                float inputs:clearcoat = 0
                float inputs:clearcoatRoughness = 0.03
                color3f inputs:diffuseColor = (0.29613826, 0.3662526, 0.47932017)
                float inputs:ior = 1.5
                float inputs:metallic = 0.25
                float inputs:opacity = 1
                float inputs:roughness = 0.55
                float inputs:specular = 0.5
                token outputs:surface
            }
        }

        def Material "Material_11_031"
        {
            token outputs:surface.connect = </root/_materials/Material_11_031/Principled_BSDF.outputs:surface>
            custom string userProperties:blender:data_name = "Material_11.031"

            def Shader "Principled_BSDF"
            {
                uniform token info:id = "UsdPreviewSurface"
                float inputs:clearcoat = 0
                float inputs:clearcoatRoughness = 0.03
                color3f inputs:diffuseColor = (0.12743768, 0.1746474, 0.25818285)
                float inputs:ior = 1.5
                float inputs:metallic = 0.25
                float inputs:opacity = 1
                float inputs:roughness = 0.55
                float inputs:specular = 0.5
                token outputs:surface
            }
        }

        def Material "Material_7_041"
        {
            token outputs:surface.connect = </root/_materials/Material_7_041/Principled_BSDF.outputs:surface>
            custom string userProperties:blender:data_name = "Material_7.041"

            def Shader "Principled_BSDF"
            {
                uniform token info:id = "UsdPreviewSurface"
                float inputs:clearcoat = 0
                float inputs:clearcoatRoughness = 0.03
                color3f inputs:diffuseColor = (0.004391442, 0.1746474, 0.27889428)
                float inputs:ior = 1.5
                float inputs:metallic = 0.25
                float inputs:opacity = 1
                float inputs:roughness = 0.55
                float inputs:specular = 0.5
                token outputs:surface
            }
        }

        def Material "Material_13_024"
        {
            token outputs:surface.connect = </root/_materials/Material_13_024/Principled_BSDF.outputs:surface>
            custom string userProperties:blender:data_name = "Material_13.024"

            def Shader "Principled_BSDF"
            {
                uniform token info:id = "UsdPreviewSurface"
                float inputs:clearcoat = 0
                float inputs:clearcoatRoughness = 0.03
                color3f inputs:diffuseColor = (0.12743768, 0.1746474, 0.25818285)
                float inputs:ior = 1.5
                float inputs:metallic = 0.25
                float inputs:opacity = 1
                float inputs:roughness = 0.55
                float inputs:specular = 0.5
                token outputs:surface
            }
        }

        def Material "Material_0_043"
        {
            token outputs:surface.connect = </root/_materials/Material_0_043/Principled_BSDF.outputs:surface>
            custom string userProperties:blender:data_name = "Material_0.043"

            def Shader "Principled_BSDF"
            {
                uniform token info:id = "UsdPreviewSurface"
                float inputs:clearcoat = 0
                float inputs:clearcoatRoughness = 0.03
                color3f inputs:diffuseColor = (0.033104766, 0.052860647, 0.09084171)
                float inputs:ior = 1.5
                float inputs:metallic = 0.25
                float inputs:opacity = 1
                float inputs:roughness = 0.55
                float inputs:specular = 0.5
                token outputs:surface
            }
        }

        def Material "Material_4_043"
        {
            token outputs:surface.connect = </root/_materials/Material_4_043/Principled_BSDF.outputs:surface>
            custom string userProperties:blender:data_name = "Material_4.043"

            def Shader "Principled_BSDF"
            {
                uniform token info:id = "UsdPreviewSurface"
                float inputs:clearcoat = 0
                float inputs:clearcoatRoughness = 0.03
                color3f inputs:diffuseColor = (0.004391442, 0.1746474, 0.27889428)
                float inputs:ior = 1.5
                float inputs:metallic = 0.25
                float inputs:opacity = 1
                float inputs:roughness = 0.55
                float inputs:specular = 0.5
                token outputs:surface
            }
        }

        def Material "Material_12_028"
        {
            token outputs:surface.connect = </root/_materials/Material_12_028/Principled_BSDF.outputs:surface>
            custom string userProperties:blender:data_name = "Material_12.028"

            def Shader "Principled_BSDF"
            {
                uniform token info:id = "UsdPreviewSurface"
                float inputs:clearcoat = 0
                float inputs:clearcoatRoughness = 0.03
                color3f inputs:diffuseColor = (0.12743768, 0.1746474, 0.25818285)
                float inputs:ior = 1.5
                float inputs:metallic = 0.25
                float inputs:opacity = 1
                float inputs:roughness = 0.55
                float inputs:specular = 0.5
                token outputs:surface
            }
        }

        def Material "Material_2_043"
        {
            token outputs:surface.connect = </root/_materials/Material_2_043/Principled_BSDF.outputs:surface>
            custom string userProperties:blender:data_name = "Material_2.043"

            def Shader "Principled_BSDF"
            {
                uniform token info:id = "UsdPreviewSurface"
                float inputs:clearcoat = 0
                float inputs:clearcoatRoughness = 0.03
                color3f inputs:diffuseColor = (0.004391442, 0.1746474, 0.27889428)
                float inputs:ior = 1.5
                float inputs:metallic = 0.25
                float inputs:opacity = 1
                float inputs:roughness = 0.55
                float inputs:specular = 0.5
                token outputs:surface
            }
        }

        def Material "Material_9_036"
        {
            token outputs:surface.connect = </root/_materials/Material_9_036/Principled_BSDF.outputs:surface>
            custom string userProperties:blender:data_name = "Material_9.036"

            def Shader "Principled_BSDF"
            {
                uniform token info:id = "UsdPreviewSurface"
                float inputs:clearcoat = 0
                float inputs:clearcoatRoughness = 0.03
                color3f inputs:diffuseColor = (0.12743768, 0.1746474, 0.25818285)
                float inputs:ior = 1.5
                float inputs:metallic = 0.25
                float inputs:opacity = 1
                float inputs:roughness = 0.55
                float inputs:specular = 0.5
                token outputs:surface
            }
        }

        def Material "Material_5_043"
        {
            token outputs:surface.connect = </root/_materials/Material_5_043/Principled_BSDF.outputs:surface>
            custom string userProperties:blender:data_name = "Material_5.043"

            def Shader "Principled_BSDF"
            {
                uniform token info:id = "UsdPreviewSurface"
                float inputs:clearcoat = 0
                float inputs:clearcoatRoughness = 0.03
                color3f inputs:diffuseColor = (0.004391442, 0.1746474, 0.27889428)
                float inputs:ior = 1.5
                float inputs:metallic = 0.25
                float inputs:opacity = 1
                float inputs:roughness = 0.55
                float inputs:specular = 0.5
                token outputs:surface
            }
        }

        def Material "Material_3_043"
        {
            token outputs:surface.connect = </root/_materials/Material_3_043/Principled_BSDF.outputs:surface>
            custom string userProperties:blender:data_name = "Material_3.043"

            def Shader "Principled_BSDF"
            {
                uniform token info:id = "UsdPreviewSurface"
                float inputs:clearcoat = 0
                float inputs:clearcoatRoughness = 0.03
                color3f inputs:diffuseColor = (0.004391442, 0.1746474, 0.27889428)
                float inputs:ior = 1.5
                float inputs:metallic = 0.25
                float inputs:opacity = 1
                float inputs:roughness = 0.55
                float inputs:specular = 0.5
                token outputs:surface
            }
        }

        def Material "Material_15_019"
        {
            token outputs:surface.connect = </root/_materials/Material_15_019/Principled_BSDF.outputs:surface>
            custom string userProperties:blender:data_name = "Material_15.019"

            def Shader "Principled_BSDF"
            {
                uniform token info:id = "UsdPreviewSurface"
                float inputs:clearcoat = 0
                float inputs:clearcoatRoughness = 0.03
                color3f inputs:diffuseColor = (0.0129830325, 0.022173885, 0.04373503)
                float inputs:ior = 1.5
                float inputs:metallic = 0.25
                float inputs:opacity = 1
                float inputs:roughness = 0.55
                float inputs:specular = 0.5
                token outputs:surface
            }
        }

        def Material "Material_10_033"
        {
            token outputs:surface.connect = </root/_materials/Material_10_033/Principled_BSDF.outputs:surface>
            custom string userProperties:blender:data_name = "Material_10.033"

            def Shader "Principled_BSDF"
            {
                uniform token info:id = "UsdPreviewSurface"
                float inputs:clearcoat = 0
                float inputs:clearcoatRoughness = 0.03
                color3f inputs:diffuseColor = (0.12743768, 0.1746474, 0.25818285)
                float inputs:ior = 1.5
                float inputs:metallic = 0.25
                float inputs:opacity = 1
                float inputs:roughness = 0.55
                float inputs:specular = 0.5
                token outputs:surface
            }
        }

        def Material "Material_14_022"
        {
            token outputs:surface.connect = </root/_materials/Material_14_022/Principled_BSDF.outputs:surface>
            custom string userProperties:blender:data_name = "Material_14.022"

            def Shader "Principled_BSDF"
            {
                uniform token info:id = "UsdPreviewSurface"
                float inputs:clearcoat = 0
                float inputs:clearcoatRoughness = 0.03
                color3f inputs:diffuseColor = (0.12743768, 0.1746474, 0.25818285)
                float inputs:ior = 1.5
                float inputs:metallic = 0.25
                float inputs:opacity = 1
                float inputs:roughness = 0.55
                float inputs:specular = 0.5
                token outputs:surface
            }
        }

        def Material "Material_8_038"
        {
            token outputs:surface.connect = </root/_materials/Material_8_038/Principled_BSDF.outputs:surface>
            custom string userProperties:blender:data_name = "Material_8.038"

            def Shader "Principled_BSDF"
            {
                uniform token info:id = "UsdPreviewSurface"
                float inputs:clearcoat = 0
                float inputs:clearcoatRoughness = 0.03
                color3f inputs:diffuseColor = (0.004391442, 0.1746474, 0.27889428)
                float inputs:ior = 1.5
                float inputs:metallic = 0.25
                float inputs:opacity = 1
                float inputs:roughness = 0.55
                float inputs:specular = 0.5
                token outputs:surface
            }
        }
    }

    def DomeLight "env_light"
    {
        float inputs:intensity = 1
        asset inputs:texture:file = @./textures/color_121212.hdr@
        float3 xformOp:rotateXYZ = (90, -0, 90)
        uniform token[] xformOpOrder = ["xformOp:rotateXYZ"]
    }
}

